<svg xmlns="http://www.w3.org/2000/svg" xmlns:xlink="http://www.w3.org/1999/xlink" width="500" zoomAndPan="magnify" viewBox="0 0 375 374.999991" height="500" preserveAspectRatio="xMidYMid meet" version="1.0"><defs><clipPath id="e993aed364"><path d="M 31.132812 48.476562 L 343.882812 48.476562 L 343.882812 326.726562 L 31.132812 326.726562 Z M 31.132812 48.476562 " clip-rule="nonzero"/></clipPath></defs><g clip-path="url(#e993aed364)"><path fill="#313131" d="M 343.527344 323.472656 L 298.933594 156.261719 C 298.644531 155.175781 297.660156 154.421875 296.539062 154.421875 L 287.359375 154.421875 C 296.152344 136.691406 302.332031 117.90625 302.332031 98.671875 C 302.332031 71 279.820312 48.492188 252.152344 48.492188 C 224.484375 48.492188 201.976562 71 201.976562 98.667969 C 201.976562 118.882812 207.390625 137.269531 215.648438 154.421875 L 78.210938 154.421875 C 77.089844 154.421875 76.101562 155.175781 75.816406 156.261719 L 31.21875 323.472656 C 31.019531 324.214844 31.179688 325.011719 31.648438 325.621094 C 32.117188 326.230469 32.84375 326.589844 33.613281 326.589844 L 341.132812 326.589844 C 341.902344 326.589844 342.628906 326.230469 343.097656 325.621094 C 343.570312 325.011719 343.726562 324.214844 343.527344 323.472656 Z M 329.570312 290.386719 C 323.636719 289.496094 311.90625 286.476562 310.507812 276.433594 C 310.007812 272.839844 310.664062 269.960938 312.515625 267.632812 C 315.128906 264.34375 319.535156 262.957031 322.109375 262.402344 Z M 252.152344 53.453125 C 277.085938 53.453125 297.367188 73.734375 297.367188 98.667969 C 297.367188 135.941406 272.746094 172.207031 252.0625 201.75 C 228.921875 171.449219 206.933594 138.480469 206.933594 98.667969 C 206.9375 73.734375 227.222656 53.453125 252.152344 53.453125 Z M 250.1875 207.457031 C 250.65625 208.066406 251.382812 208.425781 252.152344 208.425781 C 252.171875 208.425781 252.191406 208.425781 252.207031 208.425781 C 252.996094 208.40625 253.730469 208.015625 254.183594 207.371094 C 264.355469 192.859375 275.699219 176.664062 284.824219 159.382812 L 294.632812 159.382812 L 311.304688 221.902344 C 304.851562 223.46875 300.519531 226.710938 296.324219 229.863281 C 291.648438 233.378906 287.226562 236.699219 279.707031 238.066406 C 264.703125 240.765625 206.113281 205.675781 202.261719 191.6875 C 198.808594 179.140625 209.441406 163.34375 212.320312 159.378906 L 218.125 159.378906 C 226.988281 176.425781 238.507812 192.269531 250.1875 207.457031 Z M 80.117188 159.378906 L 185.164062 159.378906 C 185.878906 163.679688 187.605469 180.027344 175.40625 191.949219 C 165.5625 201.566406 148.964844 202.539062 139.96875 202.277344 C 134.925781 202.121094 130.066406 203.882812 126.328125 207.238281 C 122.480469 210.679688 115.226562 215.117188 102.542969 216.71875 C 83.117188 219.15625 70.519531 212.398438 66.640625 209.914062 Z M 49.664062 273.554688 C 51.363281 278.109375 54.179688 283.222656 58.808594 286.332031 C 63.339844 289.375 69.683594 289.273438 76.402344 289.167969 C 84.246094 289.046875 93.132812 288.902344 100.335938 293.773438 C 106.835938 298.167969 107.15625 303.828125 107.5 309.820312 C 107.722656 313.691406 108.003906 317.914062 110.136719 321.632812 L 36.84375 321.632812 Z M 116.480469 321.628906 C 113.007812 318.609375 112.738281 314.582031 112.453125 309.539062 C 112.09375 303.253906 111.652344 295.433594 103.117188 289.664062 C 94.617188 283.917969 84.914062 284.082031 76.324219 284.207031 C 70.144531 284.308594 64.816406 284.390625 61.574219 282.214844 C 54.601562 277.527344 52.585938 266.167969 52.246094 263.875 L 65.300781 214.929688 C 69.957031 217.679688 79.792969 222.214844 94.167969 222.214844 C 96.992188 222.214844 99.992188 222.039062 103.160156 221.640625 C 117.113281 219.878906 125.257812 214.84375 129.632812 210.933594 C 132.425781 208.4375 136.003906 207.109375 139.820312 207.238281 C 149.621094 207.53125 167.714844 206.402344 178.867188 195.5 C 192.203125 182.464844 191.105469 165.4375 190.199219 159.382812 L 206.289062 159.382812 C 201.816406 166.203125 194.03125 180.476562 197.480469 193.007812 C 201.910156 209.085938 257.660156 243.152344 278.097656 243.152344 C 279.003906 243.152344 279.839844 243.085938 280.597656 242.949219 C 289.269531 241.371094 294.601562 237.367188 299.300781 233.832031 C 303.269531 230.851562 307.042969 228.03125 312.585938 226.699219 L 320.824219 257.601562 C 317.519531 258.34375 312.128906 260.167969 308.652344 264.519531 C 305.929688 267.925781 304.902344 272.164062 305.59375 277.121094 C 307.675781 292.042969 325.164062 294.992188 330.949219 295.566406 L 337.902344 321.632812 L 116.480469 321.632812 Z M 116.480469 321.628906 " fill-opacity="1" fill-rule="nonzero"/></g><path fill="#313131" d="M 171.722656 249.3125 C 174.515625 232.089844 160.183594 223.046875 149.867188 221.171875 C 141.019531 219.578125 94.648438 229.601562 86.25 234.933594 C 77.679688 240.378906 67.191406 257.128906 70.824219 268.230469 C 74.285156 278.820312 84.960938 280.960938 95.984375 280.960938 C 97.550781 280.960938 99.125 280.914062 100.683594 280.847656 C 113.359375 280.292969 168.632812 268.40625 171.722656 249.3125 Z M 100.464844 275.890625 C 84.90625 276.570312 77.921875 273.988281 75.539062 266.6875 C 72.925781 258.699219 80.988281 244.152344 88.90625 239.121094 C 96.566406 234.257812 136.546875 225.933594 147.238281 225.933594 C 147.957031 225.933594 148.546875 225.972656 148.984375 226.050781 C 154.789062 227.105469 169.3125 233.199219 166.828125 248.523438 C 164.539062 262.664062 115.078125 275.253906 100.464844 275.890625 Z M 100.464844 275.890625 " fill-opacity="1" fill-rule="nonzero"/><path fill="#313131" d="M 281.132812 259.792969 C 274.6875 254.722656 265.394531 252.71875 256.40625 250.789062 C 249.957031 249.402344 243.285156 247.96875 238.066406 245.4375 C 234.210938 243.570312 230.421875 240.035156 226.40625 236.292969 C 217.84375 228.3125 208.136719 219.265625 195.0625 225.15625 C 183.484375 230.371094 180.769531 245.832031 178.375 259.476562 C 176.917969 267.789062 175.539062 275.636719 172.46875 279.371094 C 169.136719 283.417969 162.835938 286.164062 156.746094 288.824219 C 147.769531 292.738281 138.492188 296.785156 140.253906 305.507812 C 140.773438 308.066406 143.441406 309.90625 148.902344 311.484375 C 161.285156 315.050781 187.855469 317.074219 214.609375 317.074219 C 247.917969 317.074219 281.511719 313.933594 288.371094 306.726562 C 293.425781 301.417969 295.800781 294.507812 295.242188 286.75 C 294.40625 275.144531 287.558594 264.851562 281.132812 259.792969 Z M 284.773438 303.304688 C 276.945312 311.539062 211.953125 314.199219 170.957031 310.109375 C 147.550781 307.773438 145.160156 304.523438 145.113281 304.523438 C 144.210938 300.050781 149.65625 297.328125 158.726562 293.371094 C 165.355469 290.480469 172.210938 287.488281 176.292969 282.519531 C 180.195312 277.78125 181.683594 269.304688 183.257812 260.332031 C 185.441406 247.902344 187.914062 233.816406 197.097656 229.679688 C 207.160156 225.148438 214.867188 232.324219 223.023438 239.925781 C 227.128906 243.75 231.375 247.707031 235.902344 249.902344 C 241.664062 252.691406 248.628906 254.191406 255.363281 255.636719 C 263.800781 257.453125 272.523438 259.328125 278.066406 263.695312 C 283.449219 267.933594 289.574219 277.066406 290.292969 287.105469 C 290.753906 293.519531 288.894531 298.972656 284.773438 303.304688 Z M 284.773438 303.304688 " fill-opacity="1" fill-rule="nonzero"/><path fill="#313131" d="M 284.828125 98.667969 C 284.828125 80.648438 270.167969 65.992188 252.152344 65.992188 C 234.136719 65.992188 219.476562 80.648438 219.476562 98.667969 C 219.476562 116.683594 234.136719 131.34375 252.152344 131.34375 C 270.167969 131.34375 284.828125 116.6875 284.828125 98.667969 Z M 224.4375 98.667969 C 224.4375 83.382812 236.871094 70.949219 252.152344 70.949219 C 267.433594 70.949219 279.871094 83.386719 279.871094 98.667969 C 279.871094 113.949219 267.433594 126.382812 252.152344 126.382812 C 236.871094 126.382812 224.4375 113.953125 224.4375 98.667969 Z M 224.4375 98.667969 " fill-opacity="1" fill-rule="nonzero"/></svg>