<svg xmlns="http://www.w3.org/2000/svg" xmlns:xlink="http://www.w3.org/1999/xlink" width="500" zoomAndPan="magnify" viewBox="0 0 375 374.999991" height="500" preserveAspectRatio="xMidYMid meet" version="1.0"><defs><clipPath id="d45e3120bf"><path d="M 11.003906 9.710938 L 364.253906 9.710938 L 364.253906 365.210938 L 11.003906 365.210938 Z M 11.003906 9.710938 " clip-rule="nonzero"/></clipPath></defs><path fill="#fa3c7e" d="M 259.277344 363.679688 L 346.34375 363.679688 C 355.296875 363.679688 362.578125 356.3125 362.578125 347.261719 L 362.578125 334.382812 L 226.300781 334.382812 L 226.300781 347.1875 C 226.300781 356.71875 233.941406 364.445312 243.367188 364.445312 L 258.511719 364.445312 C 258.511719 364.023438 258.855469 363.679688 259.277344 363.679688 Z M 282.136719 342.078125 L 310.703125 342.078125 C 313.316406 342.078125 315.429688 344.199219 315.429688 346.804688 L 315.429688 347.644531 C 315.429688 350.257812 313.308594 352.371094 310.703125 352.371094 L 282.136719 352.371094 C 279.53125 352.371094 277.410156 350.25 277.410156 347.644531 L 277.410156 346.804688 C 277.410156 344.199219 279.53125 342.078125 282.136719 342.078125 Z M 282.136719 343.609375 L 310.703125 343.609375 C 312.464844 343.609375 313.898438 345.042969 313.898438 346.804688 L 313.898438 347.644531 C 313.898438 349.40625 312.464844 350.839844 310.703125 350.839844 L 282.136719 350.839844 C 280.375 350.839844 278.941406 349.40625 278.941406 347.644531 L 278.941406 346.804688 C 278.941406 345.050781 280.375 343.609375 282.136719 343.609375 Z M 230.691406 139.675781 C 232.628906 142.929688 234.292969 146.351562 235.648438 149.910156 L 362.515625 149.910156 C 361.878906 141.445312 354.882812 134.738281 346.34375 134.738281 L 272.175781 134.738281 C 271.753906 134.738281 271.410156 134.390625 271.410156 133.972656 L 243.359375 133.972656 C 238.339844 133.976562 233.816406 136.175781 230.691406 139.675781 Z M 281.53125 141.855469 L 311.3125 141.855469 C 311.734375 141.855469 312.082031 142.203125 312.082031 142.621094 C 312.082031 143.042969 311.734375 143.386719 311.3125 143.386719 L 281.53125 143.386719 C 281.113281 143.386719 280.765625 143.042969 280.765625 142.621094 C 280.765625 142.203125 281.113281 141.855469 281.53125 141.855469 Z M 81.5 159.828125 L 76.265625 147.019531 L 74.480469 147.578125 C 74.402344 147.601562 74.328125 147.613281 74.25 147.613281 C 73.953125 147.613281 73.667969 147.4375 73.546875 147.148438 L 64.699219 126.582031 C 64.53125 126.191406 64.714844 125.738281 65.101562 125.578125 C 65.492188 125.410156 65.933594 125.59375 66.105469 125.976562 L 74.671875 145.90625 L 106.914062 135.863281 L 102.988281 116.789062 C 102.90625 116.375 103.171875 115.96875 103.585938 115.886719 C 104 115.800781 104.40625 116.070312 104.492188 116.484375 L 108.5625 136.238281 C 108.636719 136.621094 108.414062 137.003906 108.039062 137.125 L 106.574219 137.578125 L 107.847656 141.835938 C 114.347656 129.140625 124.433594 119.171875 136.304688 112.898438 C 133.683594 109.269531 130.457031 106.109375 126.730469 103.589844 L 119.230469 98.503906 C 119.214844 98.527344 119.191406 98.550781 119.167969 98.574219 C 119.144531 98.597656 119.121094 98.621094 119.097656 98.644531 C 119.046875 98.6875 118.992188 98.726562 118.929688 98.757812 C 118.914062 98.765625 118.898438 98.78125 118.882812 98.789062 C 118.867188 98.796875 118.855469 98.796875 118.847656 98.804688 C 118.839844 98.804688 118.839844 98.804688 118.832031 98.8125 C 117.113281 99.5 115.359375 99.835938 113.597656 99.835938 C 108.101562 99.835938 102.550781 96.574219 98.023438 90.496094 C 98.007812 90.472656 98 90.441406 97.984375 90.417969 C 97.953125 90.375 97.929688 90.328125 97.917969 90.273438 C 97.902344 90.226562 97.894531 90.183594 97.886719 90.136719 C 97.878906 90.089844 97.878906 90.042969 97.878906 89.992188 C 97.878906 89.9375 97.894531 89.890625 97.910156 89.835938 C 97.917969 89.808594 97.917969 89.785156 97.921875 89.753906 L 97.945312 89.691406 L 81.324219 92.832031 C 69.183594 96.039062 60.132812 106.191406 58.363281 118.613281 L 45.808594 171.027344 L 47.792969 171.550781 L 101.347656 185.59375 C 100.949219 183.425781 100.652344 181.234375 100.46875 179.015625 C 91.960938 175.402344 85.085938 168.570312 81.5 159.828125 Z M 78.480469 95.933594 C 85.0625 94.050781 92.503906 95.902344 97.441406 100.65625 C 97.746094 100.949219 97.753906 101.4375 97.464844 101.734375 C 97.3125 101.890625 97.113281 101.972656 96.910156 101.972656 C 96.71875 101.972656 96.527344 101.90625 96.382812 101.757812 C 91.839844 97.378906 84.988281 95.664062 78.910156 97.402344 C 78.511719 97.515625 78.082031 97.289062 77.960938 96.875 C 77.835938 96.476562 78.074219 96.054688 78.480469 95.933594 Z M 78.480469 95.933594 " fill-opacity="1" fill-rule="nonzero"/><path fill="#f5ba01" d="M 328.679688 332.851562 L 287.242188 332.851562 L 286.039062 323.328125 C 286.007812 323.105469 285.894531 322.914062 285.710938 322.792969 L 276.089844 316.269531 C 275.738281 316.03125 275.265625 316.125 275.027344 316.476562 C 274.789062 316.828125 274.878906 317.300781 275.234375 317.539062 L 284.566406 323.863281 L 285.703125 332.851562 L 257.5625 332.851562 L 258.367188 309.859375 L 310.570312 316.867188 C 310.570312 316.925781 310.554688 316.996094 310.570312 317.058594 C 311.191406 320.003906 312.808594 322.691406 315.117188 324.621094 C 317.421875 326.550781 320.359375 327.675781 323.371094 327.777344 C 323.378906 327.777344 323.386719 327.777344 323.390625 327.777344 C 323.804688 327.777344 324.144531 327.449219 324.160156 327.035156 C 324.175781 326.613281 323.84375 326.261719 323.414062 326.246094 C 320.75 326.152344 318.152344 325.164062 316.097656 323.449219 C 314.132812 321.8125 312.746094 319.554688 312.148438 317.082031 L 327.691406 319.164062 Z M 213.546875 221.929688 C 212.160156 220.078125 211.675781 218.300781 212.136719 216.761719 C 211.65625 215.996094 211.332031 215.023438 211.171875 214.019531 C 201.277344 223.667969 188.058594 229.257812 174.363281 229.257812 C 169.234375 229.257812 164.039062 228.476562 158.917969 226.832031 C 145.644531 222.558594 134.902344 213.1875 128.65625 200.429688 C 126.058594 195.125 124.386719 189.503906 123.621094 183.753906 L 111.242188 181.808594 C 111.425781 184.273438 111.757812 186.710938 112.203125 189.113281 L 104.972656 186.785156 C 104.574219 186.65625 104.140625 186.878906 104.007812 187.285156 C 103.878906 187.691406 104.101562 188.117188 104.507812 188.25 L 112.546875 190.835938 C 113.574219 195.675781 115.128906 200.347656 117.160156 204.78125 L 110.078125 202.5 C 109.679688 202.367188 109.242188 202.589844 109.113281 202.996094 C 108.984375 203.402344 109.203125 203.832031 109.609375 203.960938 L 118.054688 206.679688 C 125.445312 221.523438 138.351562 233.386719 155.082031 238.769531 C 155.289062 238.835938 155.492188 238.890625 155.695312 238.960938 C 177.503906 245.726562 200.394531 239.863281 216.851562 225.375 C 215.433594 224.136719 214.304688 222.949219 213.546875 221.929688 Z M 147.644531 116.128906 L 138.984375 113.34375 C 138.585938 113.214844 138.152344 113.4375 138.019531 113.839844 C 137.890625 114.246094 138.113281 114.675781 138.519531 114.804688 L 145.777344 117.140625 C 141.5 119.539062 137.460938 122.410156 133.765625 125.730469 L 125.980469 123.226562 C 125.582031 123.097656 125.144531 123.320312 125.015625 123.726562 C 124.886719 124.132812 125.105469 124.5625 125.511719 124.691406 L 132.472656 126.933594 C 129.375 129.867188 126.523438 133.121094 123.988281 136.660156 L 116.1875 134.148438 C 115.78125 134.015625 115.351562 134.238281 115.222656 134.644531 C 115.089844 135.050781 115.3125 135.480469 115.71875 135.609375 L 123.078125 137.976562 C 120.832031 141.269531 118.855469 144.789062 117.175781 148.535156 L 109.65625 146.113281 C 109.480469 146.0625 109.304688 146.074219 109.144531 146.144531 L 109.609375 147.714844 L 116.554688 149.949219 C 115.820312 151.6875 115.152344 153.464844 114.554688 155.285156 L 125.964844 159.121094 C 135.230469 130.878906 164.875 115.058594 192.1875 123.839844 C 205.460938 128.113281 216.207031 137.484375 222.453125 150.242188 C 228.691406 162.980469 229.679688 177.574219 225.234375 191.335938 C 223.941406 195.332031 222.238281 199.074219 220.191406 202.550781 C 222.300781 203.707031 224.382812 204.742188 226.15625 205.484375 C 225.296875 203.609375 225.074219 201.761719 225.601562 200.371094 C 225.953125 199.441406 226.621094 198.824219 227.480469 198.625 C 229.179688 198.226562 230.355469 199.871094 230.789062 200.492188 C 231.648438 201.695312 232.492188 202.660156 233.328125 203.484375 C 234.613281 200.773438 235.742188 197.957031 236.683594 195.023438 C 237.726562 191.800781 238.515625 188.554688 239.066406 185.316406 C 239.199219 184.574219 239.296875 183.824219 239.398438 183.082031 C 240.890625 172.15625 239.6875 161.34375 236.203125 151.472656 C 236.019531 150.960938 235.847656 150.449219 235.648438 149.941406 C 234.292969 146.382812 232.628906 142.960938 230.691406 139.707031 C 229.941406 138.441406 229.152344 137.195312 228.308594 135.984375 C 220.667969 124.945312 209.609375 116.300781 196.019531 111.925781 C 179.464844 106.574219 162.238281 108.574219 147.644531 116.128906 Z M 175.695312 189.917969 C 176.019531 188.929688 175.6875 187.796875 174.984375 186.570312 C 174.140625 187.550781 172.992188 188.371094 171.917969 188.761719 C 171.933594 188.816406 171.957031 188.863281 171.964844 188.921875 C 171.988281 189.34375 171.65625 189.703125 171.234375 189.726562 C 171.082031 189.734375 170.9375 189.734375 170.785156 189.734375 C 170.046875 190.796875 168.78125 191.371094 167.527344 191.671875 C 168.070312 191.902344 168.628906 192.117188 169.21875 192.308594 C 173.765625 193.761719 175.015625 192.023438 175.695312 189.917969 Z M 147.984375 166.496094 C 152.796875 167.214844 156.460938 167.0625 160.175781 166.488281 C 159.289062 163.449219 159.179688 160.082031 160.390625 156.320312 C 163.511719 146.671875 170.882812 141.28125 180.292969 141.65625 L 182.945312 133.449219 C 183.289062 132.371094 184.417969 131.765625 185.460938 132.101562 L 194.679688 135.074219 C 195.722656 135.410156 196.28125 136.550781 195.929688 137.628906 L 193.390625 145.492188 C 197.960938 148.25 201.371094 152.347656 203.792969 157.972656 C 204.207031 158.929688 203.828125 160.074219 202.933594 160.609375 L 193.308594 166.3125 C 192.839844 166.589844 192.296875 166.664062 191.78125 166.519531 C 191.269531 166.367188 190.847656 166.03125 190.59375 165.554688 C 188.738281 162.046875 186.234375 159.765625 183.128906 158.769531 C 179.457031 157.589844 178.386719 159.191406 177.773438 161.097656 C 177.089844 163.210938 180.164062 166.25 183.414062 169.476562 C 189.109375 175.117188 196.902344 182.851562 193.222656 194.230469 C 189.988281 204.25 182.5625 209.75 172.722656 209.503906 L 170.03125 217.828125 C 169.6875 218.90625 168.5625 219.511719 167.519531 219.175781 L 158.3125 216.195312 C 157.273438 215.859375 156.710938 214.71875 157.066406 213.636719 L 159.53125 205.988281 C 153.714844 203.074219 149.285156 198.59375 146.65625 192.941406 C 146.242188 192.054688 146.519531 190.984375 147.300781 190.386719 L 149.078125 189.039062 C 146.742188 188.324219 144.265625 187.507812 141.644531 186.585938 L 125.214844 184 C 125.980469 189.429688 127.589844 194.742188 130.042969 199.757812 C 136.097656 212.128906 146.519531 221.234375 159.394531 225.375 C 164.351562 226.96875 169.394531 227.726562 174.371094 227.734375 C 188.132812 227.734375 201.394531 221.914062 211.109375 211.9375 C 211.148438 211.519531 211.21875 211.113281 211.324219 210.746094 C 210.023438 208.832031 209.984375 206.703125 211.21875 204.535156 C 210.6875 203.441406 210.453125 202.167969 210.550781 200.898438 C 210.621094 200.03125 211.132812 199.28125 211.929688 198.898438 C 212.742188 198.5 213.714844 198.570312 214.460938 199.074219 C 215.824219 199.988281 217.324219 200.914062 218.859375 201.792969 C 220.851562 198.410156 222.523438 194.757812 223.777344 190.859375 C 228.09375 177.484375 227.136719 163.296875 221.074219 150.914062 C 215.019531 138.535156 204.597656 129.4375 191.722656 125.296875 C 186.761719 123.703125 181.71875 122.9375 176.746094 122.9375 C 155.125 122.9375 134.734375 137.277344 127.421875 159.597656 Z M 147.984375 166.496094 " fill-opacity="1" fill-rule="nonzero"/><path fill="#37b5ff" d="M 53.074219 240.175781 L 140.152344 240.175781 C 143.722656 240.175781 147.011719 238.988281 149.691406 237.007812 C 148.136719 236.507812 146.3125 235.917969 144.226562 235.246094 C 135.722656 232.511719 128.210938 228.101562 121.902344 222.472656 L 111.351562 222.472656 L 111.351562 222.550781 L 93.707031 222.550781 L 93.699219 222.621094 C 93.664062 223.019531 93.332031 223.316406 92.933594 223.316406 C 92.910156 223.316406 92.886719 223.316406 92.867188 223.316406 C 92.46875 223.277344 92.183594 222.941406 92.183594 222.550781 L 31.746094 222.550781 C 31.746094 222.527344 31.753906 222.496094 31.753906 222.472656 L 27.570312 222.472656 L 27.570312 27.949219 C 27.148438 27.949219 26.804688 27.605469 26.804688 27.183594 C 26.804688 26.761719 27.148438 26.417969 27.570312 26.417969 L 148.265625 26.417969 C 148.6875 26.417969 149.035156 26.761719 149.035156 27.183594 L 149.035156 107.800781 C 151.449219 107.117188 153.898438 106.582031 156.382812 106.191406 L 156.382812 27.65625 C 156.382812 18.609375 149.101562 11.242188 140.152344 11.242188 L 65.980469 11.242188 C 65.558594 11.242188 65.214844 10.898438 65.214844 10.476562 L 37.164062 10.476562 C 27.738281 10.476562 20.097656 18.203125 20.097656 27.734375 L 20.097656 223.691406 C 20.097656 233.222656 27.738281 240.949219 37.164062 240.949219 L 52.308594 240.949219 C 52.316406 240.519531 52.652344 240.175781 53.074219 240.175781 Z M 88.621094 227.535156 C 90.414062 227.535156 91.878906 228.992188 91.878906 230.78125 C 91.878906 232.574219 90.421875 234.027344 88.621094 234.027344 C 86.828125 234.027344 85.371094 232.574219 85.371094 230.78125 C 85.371094 228.992188 86.828125 227.535156 88.621094 227.535156 Z M 71.078125 18.785156 C 71.078125 17.046875 72.496094 15.628906 74.234375 15.628906 L 102.722656 15.628906 C 104.460938 15.628906 105.878906 17.046875 105.878906 18.785156 L 105.878906 18.976562 C 105.878906 20.714844 104.460938 22.128906 102.722656 22.128906 L 74.234375 22.128906 C 72.496094 22.128906 71.078125 20.714844 71.078125 18.976562 Z M 72.609375 18.976562 L 72.609375 18.785156 C 72.609375 17.886719 73.339844 17.160156 74.234375 17.160156 L 102.722656 17.160156 C 103.617188 17.160156 104.347656 17.886719 104.347656 18.785156 L 104.347656 18.976562 C 104.347656 19.871094 103.617188 20.597656 102.722656 20.597656 L 74.234375 20.597656 C 73.339844 20.597656 72.609375 19.871094 72.609375 18.976562 Z M 86.902344 230.789062 C 86.902344 229.839844 87.675781 229.074219 88.621094 229.074219 C 89.570312 229.074219 90.34375 229.847656 90.34375 230.789062 C 90.34375 231.730469 89.570312 232.503906 88.621094 232.503906 C 87.675781 232.503906 86.902344 231.730469 86.902344 230.789062 Z M 221.089844 226.648438 C 221.082031 226.617188 221.089844 226.585938 221.082031 226.554688 C 220.890625 225.851562 220.507812 225.214844 219.984375 224.710938 C 220.046875 224.28125 220.128906 223.859375 220.238281 223.4375 C 221.726562 224.375 223.203125 225.175781 224.597656 225.765625 C 224.699219 225.804688 224.796875 225.828125 224.898438 225.828125 C 225.195312 225.828125 225.480469 225.652344 225.601562 225.359375 C 225.769531 224.96875 225.585938 224.519531 225.195312 224.359375 C 223.933594 223.820312 222.589844 223.09375 221.242188 222.261719 C 221.28125 222.121094 221.289062 221.976562 221.242188 221.832031 C 220.964844 220.988281 220.429688 220.253906 219.722656 219.71875 L 220.253906 217.527344 C 221.792969 218.507812 223.402344 219.464844 225.113281 220.460938 C 225.234375 220.53125 225.363281 220.558594 225.496094 220.558594 C 225.753906 220.558594 226.015625 220.421875 226.160156 220.175781 C 226.375 219.808594 226.246094 219.34375 225.886719 219.128906 C 224.199219 218.148438 222.613281 217.199219 221.097656 216.242188 C 221.15625 216.074219 221.171875 215.890625 221.113281 215.714844 C 220.835938 214.949219 220.335938 214.28125 219.703125 213.785156 L 220.421875 211.234375 C 223.433594 213.0625 226.015625 214.511719 226.238281 214.632812 C 226.355469 214.703125 226.484375 214.734375 226.613281 214.734375 C 226.882812 214.734375 227.144531 214.597656 227.28125 214.34375 C 227.488281 213.976562 227.359375 213.507812 226.988281 213.300781 C 226.9375 213.269531 224.5 211.910156 221.59375 210.148438 C 221.664062 209.980469 221.679688 209.789062 221.609375 209.597656 C 221.3125 208.761719 220.714844 208.042969 219.976562 207.542969 L 220.84375 204.613281 C 223.402344 205.960938 225.847656 207.070312 227.640625 207.660156 C 227.648438 207.660156 227.65625 207.660156 227.65625 207.660156 C 227.71875 207.683594 227.785156 207.6875 227.855469 207.6875 C 227.863281 207.6875 227.871094 207.6875 227.878906 207.6875 C 227.949219 207.6875 228.015625 207.675781 228.085938 207.660156 C 228.109375 207.652344 228.125 207.644531 228.148438 207.636719 C 228.175781 207.628906 228.207031 207.621094 228.230469 207.605469 C 229.25 207.070312 230.867188 206.242188 232.03125 205.652344 C 232.636719 206.089844 233.34375 206.363281 234.085938 206.425781 C 234.109375 206.425781 234.132812 206.425781 234.15625 206.425781 C 234.238281 206.425781 234.316406 206.402344 234.394531 206.378906 C 235.375 207.121094 236.347656 207.75 237.304688 208.371094 C 239.742188 209.941406 242.050781 211.433594 244.464844 214.703125 L 235.066406 232.03125 C 229.574219 231.25 224.75 229.066406 221.089844 226.648438 Z M 236.429688 232.773438 L 251.222656 249.339844 C 252.164062 249.058594 254.625 248.015625 256.363281 244.519531 C 258.449219 240.316406 258.019531 235.972656 257.636719 232.136719 C 257.339844 229.152344 257.09375 226.554688 258.128906 224.609375 L 245.652344 215.765625 Z M 252.769531 237.679688 C 255.046875 240.246094 255.628906 243.316406 254.097656 244.671875 C 253.628906 245.085938 253.015625 245.285156 252.339844 245.285156 C 250.808594 245.285156 248.894531 244.28125 247.3125 242.496094 C 245.039062 239.933594 244.457031 236.855469 245.988281 235.507812 C 247.519531 234.152344 250.503906 235.109375 252.769531 237.679688 Z M 213.476562 216.011719 C 212.867188 215.078125 212.480469 213.402344 212.636719 212 C 214.652344 213.691406 216.71875 215.199219 218.910156 216.648438 L 218.34375 218.992188 C 217.746094 218.808594 217.109375 218.738281 216.492188 218.816406 C 215.410156 217.910156 214.390625 216.96875 213.476562 216.011719 Z M 214.773438 221.011719 C 214.207031 220.253906 213.625 219.242188 213.523438 218.226562 C 215.15625 219.777344 217.011719 221.257812 218.90625 222.558594 C 218.78125 222.964844 218.675781 223.378906 218.589844 223.800781 C 218.175781 223.636719 217.730469 223.546875 217.289062 223.53125 C 217.226562 223.523438 217.171875 223.546875 217.117188 223.554688 C 216.144531 222.652344 215.347656 221.785156 214.773438 221.011719 Z M 230.398438 202.5 C 230.355469 202.621094 230.324219 202.75 230.339844 202.886719 C 230.421875 203.460938 230.636719 204.007812 230.945312 204.488281 C 230.054688 204.941406 228.996094 205.484375 228.148438 205.929688 C 226.859375 203.839844 226.628906 201.917969 227.019531 200.882812 C 227.1875 200.4375 227.457031 200.164062 227.816406 200.078125 C 228.292969 199.964844 228.820312 200.355469 229.527344 201.351562 C 229.824219 201.753906 230.117188 202.136719 230.398438 202.5 Z M 212.742188 210.09375 C 211.722656 208.738281 211.578125 207.3125 212.296875 205.761719 C 213.945312 207.121094 216.550781 208.84375 219.066406 210.40625 L 218.3125 213.0625 C 217.761719 212.894531 217.1875 212.828125 216.613281 212.886719 C 216.503906 212.894531 216.414062 212.933594 216.328125 212.980469 C 215.109375 212.070312 213.914062 211.121094 212.742188 210.09375 Z M 219.464844 203.875 L 218.550781 206.953125 C 217.945312 206.824219 217.308594 206.808594 216.710938 206.953125 C 216.675781 206.960938 216.644531 206.984375 216.605469 207 C 215.003906 205.929688 213.59375 204.902344 212.710938 204.082031 C 212.230469 203.195312 211.992188 202.085938 212.066406 201.003906 C 212.105469 200.546875 212.445312 200.332031 212.582031 200.261719 C 212.910156 200.101562 213.285156 200.125 213.59375 200.332031 C 215.394531 201.535156 217.433594 202.757812 219.464844 203.875 Z M 219.464844 203.875 " fill-opacity="1" fill-rule="nonzero"/><path fill="#ffffff" d="M 117.980469 97.496094 L 120.035156 90.65625 C 119.796875 90.601562 119.558594 90.542969 119.3125 90.472656 L 109.296875 87.554688 C 108.890625 87.441406 108.660156 87.011719 108.777344 86.605469 C 108.890625 86.199219 109.320312 85.972656 109.726562 86.085938 L 119.742188 89.003906 C 124.53125 90.402344 129.613281 87.65625 131.0625 82.878906 L 136.34375 64.324219 C 135.796875 64.464844 135.238281 64.578125 134.671875 64.640625 C 127.742188 65.335938 119.84375 62.425781 117.128906 61.316406 C 116.625 64.640625 115.042969 67.726562 112.714844 69.890625 C 112.570312 70.03125 112.386719 70.097656 112.195312 70.097656 C 112.0625 70.097656 111.933594 70.066406 111.816406 70 C 111.527344 69.839844 111.375 69.5 111.441406 69.171875 C 112.003906 66.515625 110.601562 65.121094 109.71875 64.523438 C 108.796875 63.90625 107.679688 63.613281 106.554688 63.636719 C 106.554688 63.636719 106.546875 63.636719 106.546875 63.636719 C 106.363281 63.644531 106.171875 63.667969 105.984375 63.691406 C 104.421875 63.917969 102.945312 64.777344 102.046875 66.078125 C 100.804688 67.894531 100.75 70.457031 101.925781 72.320312 C 103.097656 74.179688 105.425781 75.242188 107.609375 74.90625 C 108.03125 74.847656 108.421875 75.128906 108.484375 75.542969 C 108.546875 75.964844 108.261719 76.355469 107.847656 76.414062 C 107.503906 76.46875 107.160156 76.492188 106.8125 76.492188 C 106.199219 76.492188 105.585938 76.40625 104.988281 76.253906 L 99.53125 89.914062 C 101.878906 92.976562 109.035156 100.839844 117.980469 97.496094 Z M 129.875 66.8125 C 131.214844 66.613281 132.617188 66.945312 133.644531 67.710938 C 133.980469 67.960938 134.058594 68.445312 133.804688 68.78125 C 133.652344 68.980469 133.421875 69.089844 133.191406 69.089844 C 133.03125 69.089844 132.871094 69.042969 132.734375 68.933594 C 132.042969 68.421875 131.03125 68.191406 130.113281 68.328125 C 129.683594 68.390625 129.300781 68.109375 129.238281 67.6875 C 129.167969 67.273438 129.460938 66.882812 129.875 66.8125 Z M 128.945312 72.480469 C 129.324219 71.207031 130.15625 70.480469 130.976562 70.726562 C 131.796875 70.972656 132.097656 72.027344 131.722656 73.300781 C 131.390625 74.410156 130.71875 75.097656 130.003906 75.097656 C 129.898438 75.097656 129.789062 75.082031 129.691406 75.050781 C 128.871094 74.816406 128.5625 73.75 128.945312 72.480469 Z M 125.445312 81.660156 C 125.40625 81.667969 125.070312 81.722656 124.570312 81.722656 C 123.71875 81.722656 122.394531 81.570312 121.3125 80.765625 C 120.355469 80.050781 119.78125 79.003906 119.597656 77.640625 C 119.542969 77.21875 119.835938 76.835938 120.257812 76.78125 C 120.683594 76.722656 121.0625 77.019531 121.113281 77.441406 C 121.238281 78.390625 121.597656 79.074219 122.21875 79.53125 C 123.414062 80.425781 125.183594 80.160156 125.199219 80.152344 C 125.621094 80.089844 126.011719 80.375 126.074219 80.789062 C 126.140625 81.199219 125.859375 81.597656 125.445312 81.660156 Z M 123.8125 75.097656 L 124.921875 74.316406 C 125.535156 73.890625 125.78125 73.039062 125.503906 72.296875 L 124.699219 70.136719 C 124.554688 69.738281 124.753906 69.300781 125.152344 69.148438 C 125.550781 69.003906 125.988281 69.203125 126.140625 69.601562 L 126.945312 71.761719 C 127.460938 73.144531 126.976562 74.746094 125.804688 75.566406 L 124.691406 76.347656 C 124.5625 76.4375 124.402344 76.484375 124.257812 76.484375 C 124.011719 76.484375 123.78125 76.371094 123.628906 76.15625 C 123.382812 75.824219 123.46875 75.34375 123.8125 75.097656 Z M 119.136719 64.109375 C 120.46875 63.914062 121.878906 64.242188 122.90625 65.007812 C 123.246094 65.257812 123.320312 65.742188 123.070312 66.078125 C 122.914062 66.277344 122.683594 66.386719 122.457031 66.386719 C 122.292969 66.386719 122.132812 66.339844 121.996094 66.230469 C 121.296875 65.71875 120.292969 65.480469 119.367188 65.628906 C 118.945312 65.6875 118.554688 65.40625 118.492188 64.984375 C 118.425781 64.570312 118.714844 64.179688 119.136719 64.109375 Z M 117.996094 69.746094 C 118.371094 68.476562 119.214844 67.753906 120.027344 67.992188 C 120.25 68.0625 120.785156 68.308594 120.90625 69.171875 C 120.96875 69.585938 120.914062 70.074219 120.777344 70.566406 C 120.449219 71.675781 119.773438 72.363281 119.058594 72.363281 C 118.953125 72.363281 118.855469 72.351562 118.746094 72.320312 C 117.917969 72.082031 117.613281 71.023438 117.996094 69.746094 Z M 108.054688 71.777344 C 107.933594 71.851562 107.792969 71.890625 107.65625 71.890625 C 107.394531 71.890625 107.152344 71.761719 107.003906 71.523438 L 105.65625 69.332031 L 104.5625 70.058594 C 104.429688 70.144531 104.285156 70.191406 104.140625 70.191406 C 103.894531 70.191406 103.648438 70.066406 103.503906 69.847656 C 103.265625 69.492188 103.363281 69.019531 103.71875 68.78125 L 107.21875 66.445312 C 107.574219 66.210938 108.046875 66.308594 108.285156 66.660156 C 108.523438 67.011719 108.421875 67.488281 108.070312 67.726562 L 106.9375 68.476562 L 108.316406 70.71875 C 108.53125 71.078125 108.414062 71.554688 108.054688 71.777344 Z M 121.902344 222.480469 L 111.351562 222.480469 L 111.21875 210.117188 C 114.238281 214.664062 117.8125 218.835938 121.902344 222.480469 Z M 45.808594 171.027344 L 47.792969 171.550781 C 36.382812 192.988281 32.496094 217.230469 31.753906 222.488281 L 27.570312 222.488281 L 27.570312 27.949219 L 147.5 27.949219 L 147.5 108.253906 C 143.636719 109.445312 139.898438 111.007812 136.3125 112.898438 C 133.691406 109.269531 130.464844 106.109375 126.738281 103.589844 L 119.238281 98.503906 C 119.253906 98.480469 119.257812 98.453125 119.273438 98.429688 C 119.289062 98.398438 119.304688 98.367188 119.320312 98.335938 C 119.328125 98.320312 119.335938 98.304688 119.34375 98.289062 L 121.574219 90.863281 C 121.8125 90.878906 122.050781 90.886719 122.292969 90.886719 C 126.886719 90.886719 131.144531 87.902344 132.542969 83.300781 L 138.113281 63.707031 C 140.019531 62.855469 141.667969 61.476562 142.839844 59.679688 C 144.566406 57.042969 144.996094 53.835938 144.027344 50.878906 C 143.953125 50.652344 143.777344 50.476562 143.554688 50.398438 C 143.332031 50.320312 143.078125 50.351562 142.878906 50.480469 C 138.582031 53.300781 134.058594 50.878906 129.269531 48.316406 C 123.828125 45.40625 117.664062 42.105469 111.816406 47.710938 C 103.328125 47.949219 102.546875 57.742188 102.117188 63.757812 C 101.601562 64.171875 101.148438 64.648438 100.773438 65.191406 C 99.195312 67.496094 99.125 70.75 100.613281 73.117188 C 101.320312 74.234375 102.351562 75.113281 103.542969 75.695312 L 97.953125 89.667969 L 81.332031 92.808594 C 69.191406 96.015625 60.140625 106.167969 58.371094 118.589844 Z M 257.5625 332.851562 L 226.292969 332.851562 L 226.292969 231.148438 C 228.96875 232.28125 231.925781 233.171875 235.113281 233.597656 L 255.898438 256.875 C 258.757812 259.695312 262.035156 261.984375 265.578125 263.699219 L 256.585938 293.214844 C 256.289062 294.195312 256.425781 295.265625 256.960938 296.140625 C 257.285156 296.660156 257.738281 297.066406 258.25 297.355469 L 256.585938 308.84375 C 256.554688 309.039062 256.609375 309.246094 256.734375 309.417969 C 256.855469 309.585938 257.039062 309.683594 257.246094 309.714844 L 258.359375 309.859375 Z M 306.117188 214.019531 C 312.425781 215.269531 320.71875 212.476562 322.328125 211.902344 L 325.0625 198.839844 C 324.839844 198.855469 324.609375 198.875 324.390625 198.875 C 323.746094 198.875 323.101562 198.808594 322.472656 198.664062 C 322.058594 198.570312 321.796875 198.15625 321.898438 197.742188 C 321.988281 197.328125 322.394531 197.070312 322.816406 197.167969 C 325.613281 197.804688 328.726562 196.679688 330.375 194.429688 C 332.046875 192.144531 332.066406 188.761719 330.429688 186.558594 C 328.820312 184.382812 325.722656 183.523438 323.261719 184.519531 L 321.164062 189.789062 C 321.023438 190.132812 320.664062 190.332031 320.296875 190.253906 C 320.160156 190.222656 319.421875 190.03125 318.785156 189.023438 C 317.820312 187.492188 317.09375 184.023438 318.941406 176.210938 C 317.167969 176.234375 314.164062 176.050781 311.054688 175.285156 C 307.214844 174.34375 304.242188 172.746094 302.339844 170.632812 L 301.175781 174.589844 C 301.941406 174.496094 302.921875 174.679688 303.820312 175.011719 C 304.617188 175.308594 305.328125 175.707031 305.820312 176.144531 C 306.683594 176.894531 306.625 177.507812 306.507812 177.804688 C 306.441406 177.988281 306.28125 178.25 305.902344 178.425781 C 305.636719 178.546875 305.289062 178.609375 304.882812 178.609375 C 304.242188 178.609375 303.453125 178.457031 302.640625 178.148438 C 301.820312 177.84375 301.023438 177.390625 300.492188 176.878906 L 299.398438 180.601562 C 299.902344 179.542969 301.089844 179 302.355469 179.289062 C 303.703125 179.605469 304.578125 180.730469 304.492188 182.023438 C 304.464844 182.429688 304.125 182.734375 303.726562 182.734375 C 303.710938 182.734375 303.695312 182.734375 303.671875 182.734375 C 303.253906 182.707031 302.929688 182.347656 302.960938 181.925781 C 303.007812 181.257812 302.476562 180.890625 302.003906 180.785156 C 301.566406 180.683594 300.96875 180.753906 300.746094 181.296875 C 300.585938 181.6875 300.140625 181.878906 299.75 181.71875 C 299.441406 181.59375 299.265625 181.289062 299.28125 180.976562 L 297.226562 187.941406 C 295.605469 195.085938 300.101562 202.320312 307.285156 204.039062 L 313.644531 205.554688 C 314.058594 205.652344 314.3125 206.066406 314.210938 206.472656 C 314.128906 206.824219 313.8125 207.0625 313.46875 207.0625 C 313.40625 207.0625 313.34375 207.054688 313.292969 207.039062 L 306.929688 205.523438 C 305.605469 205.207031 304.371094 204.710938 303.230469 204.082031 L 301.03125 211.15625 C 301.628906 211.886719 303.214844 213.441406 306.117188 214.019531 Z M 324.664062 190.613281 L 326.359375 189.199219 L 325.339844 187.566406 C 325.117188 187.207031 325.222656 186.734375 325.585938 186.511719 C 325.945312 186.289062 326.410156 186.394531 326.640625 186.757812 L 329.570312 191.449219 C 329.792969 191.808594 329.683594 192.285156 329.324219 192.507812 C 329.203125 192.582031 329.054688 192.621094 328.917969 192.621094 C 328.664062 192.621094 328.414062 192.492188 328.265625 192.261719 L 327.179688 190.507812 L 325.644531 191.785156 C 325.5 191.910156 325.332031 191.960938 325.15625 191.960938 C 324.933594 191.960938 324.71875 191.871094 324.566406 191.6875 C 324.296875 191.371094 324.335938 190.890625 324.664062 190.613281 Z M 309.757812 192.972656 C 309.675781 193.203125 309.460938 193.347656 309.214844 193.347656 C 309.175781 193.347656 309.136719 193.347656 309.105469 193.339844 C 308.394531 193.203125 307.71875 193.058594 307.070312 192.917969 C 306.425781 193.332031 305.652344 193.515625 304.863281 193.515625 C 304.003906 193.515625 303.113281 193.308594 302.355469 192.972656 C 301.238281 192.476562 300.507812 191.761719 300.285156 190.996094 C 299.632812 190.753906 299.015625 190.5 298.4375 190.230469 C 298.21875 190.125 298.078125 189.886719 298.109375 189.640625 C 298.195312 188.882812 298.644531 188.21875 299.421875 187.707031 C 300.476562 187 302.117188 186.640625 303.582031 186.71875 C 303.128906 185.59375 303.464844 184.320312 304.46875 183.585938 L 305.71875 182.675781 C 306.066406 182.421875 306.539062 182.5 306.792969 182.84375 C 307.046875 183.1875 306.96875 183.664062 306.625 183.914062 L 305.375 184.828125 C 304.875 185.195312 304.769531 185.851562 305.128906 186.394531 L 305.652344 187.191406 C 307.375 187.875 308.855469 189.082031 309.527344 190.414062 C 309.972656 191.289062 310.050781 192.175781 309.757812 192.972656 Z M 312.296875 185.054688 C 312.28125 185.054688 312.265625 185.054688 312.242188 185.054688 C 311.820312 185.027344 311.5 184.664062 311.527344 184.246094 C 311.574219 183.578125 311.046875 183.210938 310.570312 183.105469 C 310.125 183.003906 309.535156 183.074219 309.3125 183.617188 C 309.152344 184.007812 308.699219 184.199219 308.316406 184.039062 C 307.925781 183.878906 307.734375 183.433594 307.894531 183.042969 C 308.363281 181.902344 309.605469 181.320312 310.914062 181.617188 C 312.265625 181.933594 313.136719 183.058594 313.054688 184.351562 C 313.03125 184.742188 312.695312 185.054688 312.296875 185.054688 Z M 313.316406 180.808594 C 312.65625 180.808594 311.851562 180.644531 311.0625 180.347656 C 310.265625 180.046875 309.550781 179.652344 309.0625 179.214844 C 308.195312 178.464844 308.257812 177.851562 308.371094 177.550781 C 308.769531 176.472656 310.65625 176.625 312.242188 177.214844 C 313.820312 177.804688 315.339844 178.929688 314.9375 180.011719 C 314.816406 180.308594 314.464844 180.808594 313.316406 180.808594 Z M 236.203125 151.449219 L 362.585938 151.449219 L 362.585938 332.859375 L 328.679688 332.859375 L 327.707031 319.171875 L 328.894531 319.332031 C 328.925781 319.339844 328.964844 319.339844 328.996094 319.339844 C 329.171875 319.339844 329.347656 319.277344 329.484375 319.164062 C 329.652344 319.023438 329.753906 318.824219 329.761719 318.613281 L 330.144531 309.785156 C 330.8125 309.652344 331.453125 309.394531 332.03125 308.988281 C 333.085938 308.230469 333.785156 307.113281 333.992188 305.832031 L 344.589844 240.214844 C 345.71875 233.238281 342.875 226.308594 337.164062 222.136719 L 323.796875 212.359375 L 326.6875 198.585938 C 328.605469 198.09375 330.34375 197 331.515625 195.453125 C 331.539062 195.453125 331.5625 195.46875 331.585938 195.46875 C 331.644531 195.46875 331.707031 195.460938 331.769531 195.445312 C 334.925781 194.664062 337.640625 192.175781 338.675781 189.089844 C 339.65625 186.195312 339.140625 182.8125 337.378906 180.316406 C 339.25 177.421875 339.679688 173.617188 338.460938 170.46875 C 337.195312 167.199219 334.214844 164.6875 330.796875 163.960938 C 329.484375 161.230469 327.253906 159.046875 324.472656 157.789062 C 321.78125 156.582031 318.632812 156.304688 315.773438 157.023438 C 312.777344 154.773438 306.722656 152.140625 301.488281 155.507812 C 298.515625 157.421875 296.613281 160.898438 296.402344 164.804688 C 296.210938 168.394531 297.480469 171.71875 299.8125 173.839844 L 295.765625 187.558594 C 294.363281 193.699219 297 199.855469 301.894531 203.257812 L 299.558594 210.765625 L 291.136719 214.582031 C 290.554688 214.847656 289.976562 215.132812 289.417969 215.429688 L 271.070312 214.527344 C 270.75 214.511719 270.519531 214.726562 270.472656 215.015625 L 270.390625 215.574219 L 260.847656 214.472656 L 239.40625 183.058594 C 240.882812 172.125 239.679688 161.3125 236.203125 151.449219 Z M 328.613281 309.8125 L 328.273438 317.691406 L 258.234375 308.289062 L 259.753906 297.839844 L 328.40625 309.785156 C 328.472656 309.8125 328.542969 309.804688 328.613281 309.8125 Z M 236.683594 194.996094 C 237.726562 191.769531 238.515625 188.523438 239.066406 185.285156 L 259.773438 215.621094 C 259.898438 215.804688 260.097656 215.929688 260.320312 215.949219 L 270.167969 217.089844 L 268.296875 229.953125 L 245.933594 214.105469 C 243.273438 210.398438 240.667969 208.722656 238.148438 207.101562 C 236.5 206.042969 234.921875 205.015625 233.328125 203.460938 C 234.609375 200.746094 235.742188 197.925781 236.683594 194.996094 Z M 92.191406 222.558594 C 92.191406 222.535156 92.183594 222.511719 92.183594 222.488281 L 94.527344 197.390625 C 94.550781 197.136719 94.695312 196.917969 94.925781 196.792969 L 102.980469 192.390625 C 103.128906 192.890625 103.265625 193.394531 103.425781 193.890625 L 96.015625 197.941406 L 93.714844 222.566406 L 93.707031 222.636719 C 93.671875 223.035156 93.339844 223.332031 92.941406 223.332031 C 92.917969 223.332031 92.894531 223.332031 92.875 223.332031 C 92.480469 223.285156 92.191406 222.949219 92.191406 222.558594 Z M 125.957031 159.09375 L 127.40625 159.582031 L 147.976562 166.496094 C 152.789062 167.214844 156.453125 167.0625 160.167969 166.488281 C 163.425781 165.984375 166.738281 165.164062 170.90625 164.304688 C 173.089844 163.855469 171.894531 169.6875 166.644531 170.769531 C 170.078125 172.382812 176.785156 174.289062 182.234375 175.210938 C 183.574219 175.433594 184.242188 177.0625 183.398438 178.132812 C 182.699219 179.03125 181.773438 179.71875 180.785156 180.132812 C 180.753906 179.773438 180.476562 179.46875 180.101562 179.429688 C 171.648438 178.648438 163.59375 175.59375 163.511719 175.5625 C 163.121094 175.410156 162.675781 175.609375 162.523438 176.007812 C 162.367188 176.402344 162.566406 176.839844 162.964844 176.992188 C 163.050781 177.023438 171.296875 180.15625 179.964844 180.953125 C 179.988281 180.953125 180.011719 180.953125 180.035156 180.953125 C 180.078125 180.953125 180.117188 180.9375 180.164062 180.929688 C 179.679688 182.859375 178.585938 184.191406 176.753906 184.726562 C 176.675781 184.398438 176.402344 184.152344 176.046875 184.136719 C 170.332031 183.9375 164.890625 182.882812 160.300781 181.089844 C 159.910156 180.9375 159.464844 181.128906 159.304688 181.527344 C 159.148438 181.917969 159.339844 182.359375 159.738281 182.523438 C 164.390625 184.34375 169.894531 185.421875 175.65625 185.660156 C 175.464844 185.984375 175.226562 186.289062 174.976562 186.585938 C 174.132812 187.566406 172.984375 188.386719 171.910156 188.777344 C 171.808594 188.441406 171.488281 188.203125 171.152344 188.210938 C 165.558594 188.480469 160.652344 187.765625 156.558594 186.113281 C 156.167969 185.953125 155.722656 186.144531 155.5625 186.535156 C 155.402344 186.925781 155.59375 187.367188 155.984375 187.53125 C 159.703125 189.039062 164.039062 189.796875 168.90625 189.796875 C 169.519531 189.796875 170.148438 189.773438 170.777344 189.75 C 170.039062 190.8125 168.777344 191.386719 167.519531 191.6875 C 167.328125 191.734375 167.128906 191.777344 166.9375 191.808594 C 162.941406 192.527344 156.8125 191.410156 149.0625 189.054688 C 146.726562 188.339844 144.25 187.523438 141.628906 186.601562 L 125.199219 184.015625 L 123.613281 183.761719 L 111.234375 181.816406 L 108.179688 181.335938 C 105.496094 180.859375 102.914062 180.070312 100.460938 179.03125 C 91.953125 175.417969 85.078125 168.585938 81.492188 159.851562 L 76.257812 147.039062 L 106.574219 137.601562 L 107.847656 141.855469 L 109.128906 146.144531 L 109.59375 147.714844 L 111.566406 154.292969 L 114.539062 155.292969 Z M 48.90625 191.742188 C 49.003906 191.328125 49.425781 191.082031 49.832031 191.179688 C 52.792969 191.910156 55.941406 191.59375 58.699219 190.300781 C 61.460938 189.007812 63.703125 186.777344 65.03125 184.039062 C 65.214844 183.65625 65.675781 183.496094 66.050781 183.679688 C 66.433594 183.863281 66.59375 184.320312 66.410156 184.695312 C 64.9375 187.757812 62.425781 190.238281 59.351562 191.6875 C 57.367188 192.621094 55.191406 193.097656 53.015625 193.097656 C 51.824219 193.097656 50.628906 192.949219 49.464844 192.667969 C 49.058594 192.558594 48.804688 192.144531 48.90625 191.742188 Z M 275.882812 235.328125 L 274.6875 234.480469 C 277.257812 226.9375 281.863281 221.355469 282.054688 221.125 C 282.324219 220.804688 282.804688 220.757812 283.132812 221.027344 C 283.457031 221.296875 283.503906 221.777344 283.234375 222.105469 C 283.1875 222.160156 278.613281 227.71875 276.136719 234.984375 C 276.082031 235.132812 276 235.246094 275.882812 235.328125 Z M 277.921875 238.652344 C 278.105469 238.78125 278.335938 238.828125 278.550781 238.777344 L 300.148438 233.5 L 305.40625 261.738281 L 286.9375 265.414062 C 276.03125 267.152344 264.832031 263.550781 257.015625 255.828125 L 252.320312 250.566406 C 253.734375 249.992188 256.058594 248.574219 257.738281 245.199219 C 260.019531 240.605469 259.546875 235.828125 259.164062 231.992188 C 258.902344 229.351562 258.679688 227.054688 259.390625 225.515625 Z M 305.878906 264.523438 C 305.789062 264.113281 306.050781 263.707031 306.464844 263.613281 L 331.792969 258.054688 C 332.207031 257.964844 332.613281 258.222656 332.703125 258.636719 C 332.796875 259.050781 332.535156 259.457031 332.121094 259.546875 L 306.792969 265.105469 C 306.738281 265.121094 306.683594 265.121094 306.625 265.121094 C 306.273438 265.128906 305.957031 264.886719 305.878906 264.523438 Z M 299.640625 231.761719 C 299.503906 231.363281 299.710938 230.925781 300.109375 230.78125 L 317.515625 224.632812 C 317.914062 224.488281 318.351562 224.703125 318.496094 225.101562 C 318.632812 225.5 318.425781 225.933594 318.027344 226.082031 L 300.625 232.230469 C 300.539062 232.257812 300.453125 232.273438 300.371094 232.273438 C 300.046875 232.273438 299.75 232.074219 299.640625 231.761719 Z M 247.007812 236.65625 C 247.183594 236.492188 247.445312 236.417969 247.757812 236.417969 C 248.753906 236.417969 250.304688 237.199219 251.628906 238.691406 C 253.367188 240.660156 253.835938 242.863281 253.09375 243.523438 C 252.347656 244.179688 250.210938 243.445312 248.472656 241.484375 C 246.722656 239.519531 246.265625 237.3125 247.007812 236.65625 Z M 247.007812 236.65625 " fill-opacity="1" fill-rule="nonzero"/><g clip-path="url(#d45e3120bf)"><path fill="#19274f" d="M 37.164062 240.941406 L 30.628906 240.941406 C 19.882812 240.941406 11.167969 232.136719 11.167969 221.28125 L 11.167969 30.144531 C 11.167969 19.28125 19.882812 10.476562 30.628906 10.476562 L 37.171875 10.476562 C 27.746094 10.476562 20.105469 18.203125 20.105469 27.734375 L 20.105469 223.691406 C 20.097656 233.214844 27.738281 240.941406 37.164062 240.941406 Z M 65.980469 11.242188 L 140.152344 11.242188 C 149.101562 11.242188 156.382812 18.609375 156.382812 27.65625 L 156.382812 106.183594 C 153.898438 106.574219 151.449219 107.109375 149.035156 107.792969 L 149.035156 27.183594 C 149.035156 26.761719 148.6875 26.417969 148.265625 26.417969 L 27.570312 26.417969 C 27.148438 26.417969 26.804688 26.761719 26.804688 27.183594 C 26.804688 27.605469 27.148438 27.949219 27.570312 27.949219 L 147.5 27.949219 L 147.5 108.253906 C 143.636719 109.445312 139.898438 111.007812 136.3125 112.898438 C 124.441406 119.171875 114.355469 129.140625 107.855469 141.835938 L 109.136719 146.121094 C 109.296875 146.0625 109.472656 146.039062 109.648438 146.089844 L 117.167969 148.511719 C 118.847656 144.765625 120.824219 141.246094 123.070312 137.953125 L 115.710938 135.585938 C 115.304688 135.457031 115.089844 135.027344 115.214844 134.621094 C 115.34375 134.214844 115.773438 134 116.179688 134.125 L 123.980469 136.636719 C 126.515625 133.097656 129.367188 129.84375 132.464844 126.910156 L 125.503906 124.667969 C 125.097656 124.539062 124.886719 124.109375 125.007812 123.703125 C 125.136719 123.296875 125.566406 123.082031 125.972656 123.207031 L 133.757812 125.710938 C 137.453125 122.386719 141.492188 119.515625 145.769531 117.117188 L 138.511719 114.78125 C 138.105469 114.652344 137.890625 114.222656 138.011719 113.820312 C 138.144531 113.414062 138.574219 113.191406 138.980469 113.320312 L 147.640625 116.109375 C 162.230469 108.550781 179.457031 106.550781 196.019531 111.882812 C 196.019531 111.882812 193.183594 110.96875 185.175781 108.390625 C 176.101562 105.472656 166.835938 104.753906 157.910156 105.941406 L 157.910156 27.65625 C 157.914062 17.765625 149.945312 9.710938 140.152344 9.710938 L 65.980469 9.710938 C 65.558594 9.710938 65.214844 10.054688 65.214844 10.476562 C 65.214844 10.898438 65.558594 11.242188 65.980469 11.242188 Z M 71.078125 18.976562 L 71.078125 18.785156 C 71.078125 17.046875 72.496094 15.628906 74.234375 15.628906 L 102.722656 15.628906 C 104.460938 15.628906 105.878906 17.046875 105.878906 18.785156 L 105.878906 18.976562 C 105.878906 20.714844 104.460938 22.128906 102.722656 22.128906 L 74.234375 22.128906 C 72.496094 22.128906 71.078125 20.714844 71.078125 18.976562 Z M 72.609375 18.976562 C 72.609375 19.871094 73.339844 20.597656 74.234375 20.597656 L 102.722656 20.597656 C 103.617188 20.597656 104.347656 19.871094 104.347656 18.976562 L 104.347656 18.785156 C 104.347656 17.886719 103.617188 17.160156 102.722656 17.160156 L 74.234375 17.160156 C 73.339844 17.160156 72.609375 17.886719 72.609375 18.785156 Z M 85.371094 230.789062 C 85.371094 228.996094 86.828125 227.542969 88.621094 227.542969 C 90.414062 227.542969 91.878906 228.996094 91.878906 230.789062 C 91.878906 232.582031 90.421875 234.035156 88.621094 234.035156 C 86.828125 234.035156 85.371094 232.582031 85.371094 230.789062 Z M 86.902344 230.789062 C 86.902344 231.738281 87.675781 232.503906 88.621094 232.503906 C 89.570312 232.503906 90.34375 231.730469 90.34375 230.789062 C 90.34375 229.847656 89.570312 229.074219 88.621094 229.074219 C 87.675781 229.066406 86.902344 229.839844 86.902344 230.789062 Z M 243.367188 133.976562 L 236.824219 133.976562 C 233.773438 133.976562 230.882812 134.691406 228.308594 135.960938 C 229.144531 137.171875 229.933594 138.410156 230.691406 139.683594 C 233.816406 136.175781 238.339844 133.976562 243.367188 133.976562 Z M 364.101562 150.730469 C 364.101562 150.875 364.109375 151.015625 364.109375 151.160156 L 364.109375 347.261719 C 364.109375 357.164062 356.140625 365.210938 346.34375 365.210938 L 259.277344 365.210938 C 258.855469 365.210938 258.511719 364.867188 258.511719 364.445312 C 258.511719 364.023438 258.855469 363.679688 259.277344 363.679688 L 346.34375 363.679688 C 355.296875 363.679688 362.578125 356.3125 362.578125 347.261719 L 362.578125 334.382812 L 226.300781 334.382812 L 226.300781 347.1875 C 226.300781 356.71875 233.941406 364.445312 243.367188 364.445312 L 236.828125 364.445312 C 226.085938 364.445312 217.371094 355.640625 217.371094 344.773438 L 217.371094 225.78125 C 217.195312 225.636719 217.019531 225.492188 216.851562 225.34375 C 215.433594 224.128906 214.304688 222.941406 213.546875 221.921875 C 212.160156 220.070312 211.675781 218.292969 212.136719 216.753906 C 211.65625 215.988281 211.332031 215.015625 211.171875 214.015625 C 201.277344 223.660156 188.058594 229.25 174.363281 229.25 C 169.234375 229.25 164.039062 228.46875 158.917969 226.824219 C 145.644531 222.550781 134.902344 213.179688 128.65625 200.421875 C 126.058594 195.117188 124.386719 189.496094 123.621094 183.746094 L 125.207031 184 C 125.972656 189.429688 127.582031 194.742188 130.035156 199.757812 C 136.089844 212.128906 146.511719 221.234375 159.386719 225.375 C 164.347656 226.96875 169.386719 227.726562 174.363281 227.734375 C 188.125 227.734375 201.386719 221.914062 211.101562 211.9375 C 211.140625 211.519531 211.210938 211.113281 211.316406 210.746094 C 210.015625 208.832031 209.976562 206.703125 211.210938 204.535156 C 210.679688 203.441406 210.445312 202.167969 210.542969 200.898438 C 210.613281 200.03125 211.125 199.28125 211.921875 198.898438 C 212.734375 198.5 213.707031 198.570312 214.453125 199.074219 C 215.816406 199.988281 217.316406 200.914062 218.851562 201.792969 C 220.84375 198.410156 222.515625 194.757812 223.769531 190.859375 C 228.085938 177.484375 227.128906 163.296875 221.066406 150.914062 C 215.011719 138.535156 204.589844 129.4375 191.714844 125.296875 C 186.753906 123.703125 181.710938 122.9375 176.738281 122.9375 C 155.117188 122.9375 134.726562 137.277344 127.414062 159.597656 L 125.964844 159.109375 C 135.230469 130.863281 164.875 115.042969 192.1875 123.824219 C 205.460938 128.097656 216.207031 137.46875 222.453125 150.226562 C 228.691406 162.964844 229.679688 177.558594 225.234375 191.320312 C 223.941406 195.316406 222.238281 199.058594 220.191406 202.535156 C 222.300781 203.691406 224.382812 204.726562 226.15625 205.46875 C 225.296875 203.59375 225.074219 201.746094 225.601562 200.355469 C 225.953125 199.429688 226.621094 198.808594 227.480469 198.609375 C 229.179688 198.210938 230.355469 199.855469 230.789062 200.476562 C 231.648438 201.679688 232.492188 202.644531 233.328125 203.46875 C 234.921875 205.023438 236.5 206.050781 238.148438 207.109375 C 240.667969 208.730469 243.273438 210.40625 245.933594 214.113281 L 268.296875 229.960938 L 270.167969 217.097656 L 260.320312 215.957031 C 260.097656 215.9375 259.898438 215.8125 259.777344 215.628906 L 239.066406 185.292969 C 239.199219 184.550781 239.296875 183.800781 239.398438 183.058594 L 260.839844 214.472656 L 270.382812 215.574219 L 270.464844 215.015625 C 270.511719 214.726562 270.742188 214.511719 271.0625 214.527344 L 289.410156 215.429688 C 289.972656 215.132812 290.546875 214.847656 291.128906 214.582031 L 299.550781 210.765625 L 301.886719 203.257812 C 296.984375 199.855469 294.355469 193.691406 295.757812 187.558594 L 299.804688 173.839844 C 297.472656 171.71875 296.195312 168.394531 296.394531 164.804688 C 296.609375 160.898438 298.507812 157.421875 301.480469 155.507812 C 306.722656 152.140625 312.777344 154.773438 315.765625 157.023438 C 318.625 156.304688 321.777344 156.574219 324.464844 157.789062 C 327.246094 159.039062 329.476562 161.222656 330.789062 163.960938 C 334.214844 164.6875 337.195312 167.199219 338.453125 170.46875 C 339.671875 173.625 339.242188 177.421875 337.371094 180.316406 C 339.132812 182.8125 339.648438 186.195312 338.667969 189.089844 C 337.625 192.167969 334.917969 194.664062 331.761719 195.445312 C 331.699219 195.460938 331.640625 195.46875 331.578125 195.46875 C 331.554688 195.46875 331.53125 195.453125 331.507812 195.453125 C 330.335938 197 328.589844 198.089844 326.679688 198.585938 L 323.792969 212.359375 L 337.15625 222.136719 C 342.867188 226.308594 345.710938 233.238281 344.582031 240.214844 L 333.984375 305.832031 C 333.777344 307.113281 333.078125 308.238281 332.023438 308.988281 C 331.445312 309.394531 330.8125 309.652344 330.136719 309.785156 L 329.753906 318.613281 C 329.746094 318.828125 329.644531 319.023438 329.476562 319.164062 C 329.339844 319.277344 329.164062 319.339844 328.988281 319.339844 C 328.957031 319.339844 328.917969 319.339844 328.886719 319.332031 L 327.699219 319.171875 L 312.15625 317.089844 C 312.753906 319.570312 314.140625 321.820312 316.105469 323.457031 C 318.152344 325.171875 320.75 326.167969 323.421875 326.253906 C 323.84375 326.269531 324.175781 326.621094 324.167969 327.042969 C 324.152344 327.457031 323.8125 327.785156 323.398438 327.785156 C 323.394531 327.785156 323.386719 327.785156 323.378906 327.785156 C 320.367188 327.683594 317.4375 326.566406 315.125 324.628906 C 312.808594 322.691406 311.199219 320.003906 310.578125 317.066406 C 310.5625 316.996094 310.570312 316.933594 310.578125 316.875 L 258.371094 309.867188 L 257.261719 309.722656 C 257.0625 309.691406 256.878906 309.585938 256.75 309.421875 C 256.617188 309.261719 256.570312 309.054688 256.601562 308.847656 L 258.265625 297.363281 C 257.746094 297.066406 257.292969 296.660156 256.976562 296.148438 C 256.441406 295.273438 256.304688 294.210938 256.601562 293.222656 L 265.59375 263.707031 C 262.050781 261.992188 258.765625 259.707031 255.914062 256.882812 L 235.128906 233.605469 C 231.949219 233.171875 228.980469 232.28125 226.308594 231.15625 L 226.308594 332.859375 L 285.71875 332.859375 L 284.582031 323.871094 L 275.25 317.546875 C 274.894531 317.308594 274.804688 316.835938 275.042969 316.484375 C 275.28125 316.132812 275.753906 316.039062 276.105469 316.277344 L 285.726562 322.800781 C 285.910156 322.921875 286.023438 323.121094 286.054688 323.335938 L 287.257812 332.859375 L 362.601562 332.859375 L 362.601562 151.449219 L 236.203125 151.449219 C 236.019531 150.9375 235.847656 150.425781 235.648438 149.917969 L 362.515625 149.917969 C 361.878906 141.453125 354.882812 134.742188 346.34375 134.742188 L 272.175781 134.742188 C 271.753906 134.742188 271.410156 134.398438 271.410156 133.976562 C 271.410156 133.558594 271.753906 133.210938 272.175781 133.210938 L 346.34375 133.210938 C 355.957031 133.210938 363.8125 140.96875 364.09375 150.617188 C 364.09375 150.640625 364.109375 150.664062 364.109375 150.683594 C 364.117188 150.699219 364.101562 150.714844 364.101562 150.730469 Z M 275.882812 235.328125 C 275.992188 235.246094 276.082031 235.132812 276.128906 234.984375 C 278.605469 227.71875 283.179688 222.160156 283.226562 222.105469 C 283.496094 221.785156 283.449219 221.296875 283.128906 221.027344 C 282.804688 220.757812 282.324219 220.804688 282.046875 221.125 C 281.855469 221.363281 277.25 226.9375 274.679688 234.480469 Z M 305.878906 264.523438 C 305.957031 264.886719 306.277344 265.128906 306.632812 265.128906 C 306.683594 265.128906 306.738281 265.121094 306.800781 265.113281 L 332.128906 259.554688 C 332.542969 259.464844 332.804688 259.058594 332.710938 258.644531 C 332.621094 258.230469 332.207031 257.972656 331.800781 258.0625 L 306.472656 263.621094 C 306.050781 263.707031 305.789062 264.113281 305.878906 264.523438 Z M 300.363281 232.273438 C 300.445312 232.273438 300.53125 232.257812 300.617188 232.230469 L 318.019531 226.082031 C 318.417969 225.941406 318.625 225.5 318.488281 225.101562 C 318.351562 224.703125 317.90625 224.496094 317.507812 224.632812 L 300.101562 230.78125 C 299.703125 230.917969 299.496094 231.363281 299.636719 231.761719 C 299.75 232.074219 300.046875 232.273438 300.363281 232.273438 Z M 259.382812 225.515625 C 258.671875 227.054688 258.894531 229.351562 259.15625 231.992188 C 259.539062 235.828125 260.011719 240.605469 257.730469 245.199219 C 256.050781 248.574219 253.730469 249.992188 252.3125 250.566406 L 257.007812 255.828125 C 264.824219 263.550781 276.03125 267.152344 286.929688 265.414062 L 305.398438 261.738281 L 300.140625 233.5 L 278.542969 238.777344 C 278.328125 238.828125 278.097656 238.78125 277.914062 238.652344 Z M 213.601562 200.332031 C 213.300781 200.132812 212.925781 200.101562 212.589844 200.261719 C 212.445312 200.332031 212.105469 200.546875 212.074219 201.003906 C 211.992188 202.085938 212.230469 203.195312 212.71875 204.082031 C 213.601562 204.902344 215.011719 205.929688 216.613281 207 C 216.652344 206.984375 216.683594 206.960938 216.71875 206.953125 C 217.324219 206.808594 217.953125 206.824219 218.558594 206.953125 L 219.472656 203.875 C 217.433594 202.757812 215.394531 201.535156 213.601562 200.332031 Z M 235.082031 232.039062 L 244.476562 214.710938 C 242.0625 211.441406 239.757812 209.949219 237.320312 208.378906 C 236.363281 207.757812 235.390625 207.128906 234.410156 206.386719 C 234.332031 206.410156 234.253906 206.433594 234.171875 206.433594 C 234.148438 206.433594 234.125 206.433594 234.101562 206.433594 C 233.359375 206.363281 232.644531 206.089844 232.046875 205.660156 C 230.890625 206.25 229.265625 207.085938 228.246094 207.613281 C 228.214844 207.628906 228.183594 207.636719 228.164062 207.644531 C 228.140625 207.652344 228.125 207.660156 228.101562 207.667969 C 228.03125 207.6875 227.964844 207.695312 227.894531 207.695312 C 227.886719 207.695312 227.878906 207.695312 227.871094 207.695312 C 227.800781 207.695312 227.734375 207.683594 227.671875 207.667969 C 227.664062 207.667969 227.65625 207.667969 227.65625 207.667969 C 225.871094 207.078125 223.417969 205.964844 220.859375 204.617188 L 219.992188 207.550781 C 220.734375 208.042969 221.328125 208.769531 221.625 209.605469 C 221.695312 209.789062 221.679688 209.980469 221.609375 210.15625 C 224.523438 211.914062 226.960938 213.277344 227.003906 213.308594 C 227.371094 213.515625 227.503906 213.984375 227.296875 214.351562 C 227.160156 214.601562 226.898438 214.742188 226.628906 214.742188 C 226.5 214.742188 226.375 214.710938 226.253906 214.640625 C 226.03125 214.519531 223.449219 213.0625 220.4375 211.242188 L 219.71875 213.792969 C 220.351562 214.289062 220.851562 214.957031 221.128906 215.722656 C 221.1875 215.898438 221.171875 216.089844 221.113281 216.25 C 222.628906 217.214844 224.214844 218.164062 225.902344 219.136719 C 226.269531 219.351562 226.390625 219.816406 226.175781 220.183594 C 226.03125 220.429688 225.777344 220.566406 225.511719 220.566406 C 225.378906 220.566406 225.25 220.539062 225.128906 220.46875 C 223.417969 219.480469 221.808594 218.515625 220.269531 217.535156 L 219.738281 219.726562 C 220.4375 220.269531 220.972656 220.996094 221.257812 221.839844 C 221.304688 221.984375 221.296875 222.128906 221.257812 222.269531 C 222.605469 223.101562 223.949219 223.828125 225.210938 224.367188 C 225.601562 224.535156 225.777344 224.976562 225.617188 225.367188 C 225.496094 225.660156 225.210938 225.835938 224.914062 225.835938 C 224.8125 225.835938 224.714844 225.8125 224.613281 225.773438 C 223.21875 225.175781 221.730469 224.375 220.253906 223.445312 C 220.144531 223.859375 220.054688 224.289062 220 224.71875 C 220.515625 225.222656 220.90625 225.867188 221.097656 226.5625 C 221.105469 226.59375 221.097656 226.625 221.105469 226.65625 C 224.75 229.066406 229.574219 231.25 235.082031 232.039062 Z M 230.347656 202.886719 C 230.324219 202.75 230.355469 202.621094 230.40625 202.5 C 230.117188 202.136719 229.832031 201.753906 229.542969 201.351562 C 228.835938 200.363281 228.308594 199.972656 227.832031 200.078125 C 227.472656 200.164062 227.203125 200.429688 227.035156 200.882812 C 226.644531 201.917969 226.867188 203.839844 228.164062 205.929688 C 229.019531 205.484375 230.078125 204.941406 230.960938 204.488281 C 230.644531 204.007812 230.429688 203.460938 230.347656 202.886719 Z M 258.128906 224.617188 L 245.652344 215.773438 L 236.4375 232.773438 L 251.230469 249.339844 C 252.171875 249.058594 254.632812 248.015625 256.371094 244.519531 C 258.457031 240.316406 258.027344 235.972656 257.644531 232.136719 C 257.332031 229.152344 257.09375 226.554688 258.128906 224.617188 Z M 212.742188 210.09375 C 213.914062 211.121094 215.101562 212.070312 216.320312 212.980469 C 216.40625 212.933594 216.503906 212.902344 216.605469 212.886719 C 217.179688 212.828125 217.753906 212.894531 218.304688 213.0625 L 219.058594 210.40625 C 216.542969 208.84375 213.9375 207.128906 212.289062 205.761719 C 211.578125 207.304688 211.722656 208.738281 212.742188 210.09375 Z M 213.476562 216.011719 C 214.390625 216.96875 215.410156 217.910156 216.484375 218.808594 C 217.101562 218.730469 217.738281 218.800781 218.335938 218.984375 L 218.90625 216.640625 C 216.710938 215.191406 214.644531 213.683594 212.628906 211.992188 C 212.480469 213.410156 212.867188 215.085938 213.476562 216.011719 Z M 214.773438 221.011719 C 215.347656 221.785156 216.144531 222.652344 217.117188 223.554688 C 217.171875 223.546875 217.226562 223.523438 217.289062 223.53125 C 217.730469 223.546875 218.167969 223.644531 218.589844 223.800781 C 218.675781 223.378906 218.78125 222.964844 218.90625 222.558594 C 217.003906 221.265625 215.15625 219.785156 213.523438 218.226562 C 213.625 219.242188 214.199219 220.253906 214.773438 221.011719 Z M 328.273438 317.699219 L 328.613281 309.820312 C 328.542969 309.8125 328.472656 309.8125 328.398438 309.804688 L 259.746094 297.863281 L 258.226562 308.3125 Z M 303.230469 204.082031 L 301.03125 211.15625 C 301.628906 211.878906 303.214844 213.441406 306.117188 214.015625 C 312.425781 215.261719 320.71875 212.46875 322.328125 211.894531 L 325.0625 198.832031 C 324.839844 198.847656 324.609375 198.867188 324.390625 198.867188 C 323.746094 198.867188 323.101562 198.800781 322.472656 198.65625 C 322.058594 198.5625 321.796875 198.148438 321.898438 197.734375 C 321.988281 197.320312 322.394531 197.0625 322.816406 197.160156 C 325.613281 197.796875 328.726562 196.671875 330.375 194.421875 C 332.046875 192.140625 332.066406 188.753906 330.429688 186.550781 C 328.820312 184.375 325.722656 183.515625 323.261719 184.511719 L 321.164062 189.78125 C 321.023438 190.125 320.664062 190.324219 320.296875 190.246094 C 320.160156 190.21875 319.421875 190.027344 318.785156 189.015625 C 317.820312 187.484375 317.09375 184.015625 318.941406 176.207031 C 317.167969 176.226562 314.164062 176.042969 311.054688 175.277344 C 307.214844 174.335938 304.242188 172.738281 302.339844 170.625 L 301.175781 174.582031 C 301.941406 174.488281 302.921875 174.671875 303.820312 175.003906 C 304.617188 175.300781 305.328125 175.699219 305.820312 176.136719 C 306.683594 176.886719 306.625 177.5 306.507812 177.796875 C 306.441406 177.980469 306.28125 178.242188 305.902344 178.417969 C 305.636719 178.539062 305.289062 178.601562 304.882812 178.601562 C 304.242188 178.601562 303.453125 178.449219 302.640625 178.140625 C 301.820312 177.835938 301.023438 177.382812 300.492188 176.871094 L 299.398438 180.59375 C 299.902344 179.535156 301.089844 178.992188 302.355469 179.28125 C 303.703125 179.597656 304.578125 180.722656 304.492188 182.015625 C 304.464844 182.421875 304.125 182.730469 303.726562 182.730469 C 303.710938 182.730469 303.695312 182.730469 303.671875 182.730469 C 303.253906 182.699219 302.929688 182.339844 302.960938 181.917969 C 303.007812 181.25 302.476562 180.882812 302.003906 180.777344 C 301.566406 180.675781 300.96875 180.746094 300.746094 181.289062 C 300.585938 181.679688 300.140625 181.871094 299.75 181.710938 C 299.441406 181.585938 299.265625 181.28125 299.28125 180.96875 L 297.226562 187.933594 C 295.605469 195.078125 300.101562 202.3125 307.285156 204.03125 L 313.644531 205.546875 C 314.058594 205.644531 314.3125 206.058594 314.210938 206.464844 C 314.128906 206.816406 313.8125 207.054688 313.46875 207.054688 C 313.40625 207.054688 313.34375 207.046875 313.292969 207.03125 L 306.929688 205.515625 C 305.605469 205.207031 304.371094 204.710938 303.230469 204.082031 Z M 281.53125 143.386719 L 311.3125 143.386719 C 311.734375 143.386719 312.082031 143.042969 312.082031 142.621094 C 312.082031 142.203125 311.734375 141.855469 311.3125 141.855469 L 281.53125 141.855469 C 281.113281 141.855469 280.765625 142.203125 280.765625 142.621094 C 280.765625 143.042969 281.113281 143.386719 281.53125 143.386719 Z M 282.136719 342.078125 L 310.703125 342.078125 C 313.316406 342.078125 315.429688 344.199219 315.429688 346.804688 L 315.429688 347.644531 C 315.429688 350.257812 313.308594 352.371094 310.703125 352.371094 L 282.136719 352.371094 C 279.53125 352.371094 277.410156 350.25 277.410156 347.644531 L 277.410156 346.804688 C 277.410156 344.199219 279.53125 342.078125 282.136719 342.078125 Z M 278.941406 346.8125 L 278.941406 347.652344 C 278.941406 349.414062 280.375 350.847656 282.136719 350.847656 L 310.703125 350.847656 C 312.464844 350.847656 313.898438 349.414062 313.898438 347.652344 L 313.898438 346.8125 C 313.898438 345.050781 312.464844 343.617188 310.703125 343.617188 L 282.136719 343.617188 C 280.375 343.609375 278.941406 345.050781 278.941406 346.8125 Z M 325.15625 191.96875 C 325.332031 191.96875 325.5 191.910156 325.644531 191.792969 L 327.179688 190.515625 L 328.265625 192.269531 C 328.414062 192.5 328.664062 192.628906 328.917969 192.628906 C 329.054688 192.628906 329.195312 192.589844 329.324219 192.515625 C 329.683594 192.292969 329.792969 191.816406 329.570312 191.457031 L 326.640625 186.761719 C 326.417969 186.402344 325.945312 186.296875 325.585938 186.519531 C 325.222656 186.742188 325.117188 187.214844 325.339844 187.574219 L 326.359375 189.207031 L 324.664062 190.621094 C 324.34375 190.890625 324.296875 191.371094 324.566406 191.703125 C 324.71875 191.878906 324.933594 191.96875 325.15625 191.96875 Z M 305.652344 187.191406 L 305.128906 186.394531 C 304.769531 185.851562 304.875 185.195312 305.375 184.828125 L 306.625 183.914062 C 306.96875 183.671875 307.039062 183.1875 306.792969 182.84375 C 306.539062 182.5 306.066406 182.429688 305.71875 182.675781 L 304.46875 183.585938 C 303.464844 184.320312 303.128906 185.59375 303.582031 186.71875 C 302.117188 186.640625 300.476562 187 299.421875 187.707031 C 298.652344 188.21875 298.203125 188.882812 298.109375 189.640625 C 298.078125 189.886719 298.21875 190.125 298.4375 190.230469 C 299.015625 190.5 299.636719 190.753906 300.285156 190.996094 C 300.507812 191.761719 301.238281 192.484375 302.355469 192.972656 C 303.113281 193.308594 303.996094 193.515625 304.863281 193.515625 C 305.660156 193.515625 306.425781 193.332031 307.070312 192.917969 C 307.726562 193.066406 308.394531 193.203125 309.105469 193.339844 C 309.144531 193.347656 309.183594 193.347656 309.214844 193.347656 C 309.453125 193.347656 309.675781 193.203125 309.757812 192.972656 C 310.050781 192.167969 309.964844 191.28125 309.519531 190.410156 C 308.847656 189.082031 307.375 187.875 305.652344 187.191406 Z M 310.921875 181.601562 C 309.613281 181.304688 308.371094 181.886719 307.902344 183.027344 C 307.742188 183.417969 307.933594 183.871094 308.324219 184.023438 C 308.714844 184.183594 309.160156 184 309.320312 183.601562 C 309.542969 183.066406 310.132812 182.988281 310.578125 183.089844 C 311.046875 183.195312 311.574219 183.5625 311.535156 184.230469 C 311.507812 184.652344 311.828125 185.019531 312.25 185.039062 C 312.265625 185.039062 312.289062 185.039062 312.304688 185.039062 C 312.703125 185.039062 313.039062 184.734375 313.070312 184.328125 C 313.144531 183.042969 312.265625 181.917969 310.921875 181.601562 Z M 314.933594 180.011719 C 315.332031 178.9375 313.8125 177.804688 312.234375 177.214844 C 310.65625 176.625 308.769531 176.480469 308.363281 177.550781 C 308.25 177.851562 308.195312 178.464844 309.054688 179.214844 C 309.550781 179.644531 310.265625 180.046875 311.054688 180.347656 C 311.851562 180.644531 312.648438 180.808594 313.308594 180.808594 C 314.464844 180.808594 314.816406 180.308594 314.933594 180.011719 Z M 155.671875 238.9375 C 155.679688 238.9375 155.6875 238.9375 155.695312 238.9375 C 155.488281 238.875 155.28125 238.8125 155.082031 238.746094 C 155.464844 238.867188 155.671875 238.9375 155.671875 238.9375 Z M 155.074219 238.746094 C 154.40625 238.53125 153.1875 238.140625 151.46875 237.589844 C 148.398438 240.160156 144.449219 241.714844 140.152344 241.714844 L 53.074219 241.714844 C 52.652344 241.714844 52.308594 241.371094 52.308594 240.949219 C 52.308594 240.527344 52.652344 240.183594 53.074219 240.183594 L 140.152344 240.183594 C 143.722656 240.183594 147.011719 238.996094 149.691406 237.015625 C 148.136719 236.515625 146.3125 235.925781 144.226562 235.253906 C 135.722656 232.519531 128.210938 228.109375 121.902344 222.480469 C 117.8125 218.828125 114.230469 214.664062 111.21875 210.117188 L 111.351562 222.480469 L 111.351562 222.558594 L 93.707031 222.558594 L 96.007812 197.933594 L 103.417969 193.882812 C 103.257812 193.386719 103.121094 192.882812 102.972656 192.382812 L 94.917969 196.785156 C 94.695312 196.910156 94.550781 197.128906 94.519531 197.382812 L 92.175781 222.480469 C 92.175781 222.503906 92.183594 222.527344 92.183594 222.550781 L 31.746094 222.550781 C 31.746094 222.527344 31.753906 222.496094 31.753906 222.472656 C 32.492188 217.222656 36.382812 192.980469 47.792969 171.535156 L 101.347656 185.578125 C 100.949219 183.410156 100.652344 181.21875 100.46875 179 C 102.921875 180.042969 105.503906 180.828125 108.183594 181.304688 L 111.242188 181.785156 C 111.425781 184.253906 111.757812 186.6875 112.203125 189.089844 L 104.972656 186.761719 C 104.574219 186.632812 104.140625 186.855469 104.007812 187.261719 C 103.878906 187.667969 104.101562 188.097656 104.507812 188.226562 L 112.546875 190.8125 C 113.574219 195.652344 115.128906 200.324219 117.160156 204.757812 L 110.078125 202.476562 C 109.679688 202.34375 109.242188 202.566406 109.113281 202.972656 C 108.984375 203.378906 109.203125 203.808594 109.609375 203.9375 L 118.054688 206.65625 C 125.4375 221.503906 138.34375 233.363281 155.074219 238.746094 Z M 49.472656 192.667969 C 50.636719 192.957031 51.832031 193.097656 53.023438 193.097656 C 55.199219 193.097656 57.367188 192.621094 59.359375 191.6875 C 62.433594 190.238281 64.9375 187.757812 66.417969 184.695312 C 66.601562 184.3125 66.441406 183.855469 66.058594 183.679688 C 65.675781 183.496094 65.214844 183.65625 65.039062 184.039062 C 63.710938 186.777344 61.46875 189.007812 58.707031 190.300781 C 55.949219 191.59375 52.800781 191.910156 49.839844 191.179688 C 49.433594 191.082031 49.011719 191.335938 48.914062 191.742188 C 48.804688 192.144531 49.058594 192.558594 49.472656 192.667969 Z M 114.546875 155.265625 C 115.144531 153.441406 115.820312 151.65625 116.546875 149.925781 L 109.601562 147.691406 L 111.574219 154.269531 Z M 147.300781 190.386719 C 146.519531 190.984375 146.242188 192.054688 146.65625 192.941406 C 149.285156 198.59375 153.714844 203.074219 159.53125 205.988281 L 157.066406 213.636719 C 156.71875 214.71875 157.28125 215.867188 158.3125 216.195312 L 167.535156 219.167969 C 168.578125 219.503906 169.703125 218.898438 170.046875 217.820312 L 172.738281 209.496094 C 182.578125 209.742188 190.003906 204.25 193.238281 194.222656 C 196.910156 182.84375 189.113281 175.109375 183.429688 169.46875 C 180.179688 166.242188 177.105469 163.195312 177.789062 161.089844 C 178.402344 159.183594 179.480469 157.578125 183.144531 158.761719 C 186.242188 159.757812 188.753906 162.039062 190.609375 165.546875 C 190.863281 166.023438 191.285156 166.359375 191.796875 166.511719 C 192.304688 166.65625 192.855469 166.582031 193.324219 166.304688 L 202.949219 160.601562 C 203.84375 160.066406 204.21875 158.925781 203.808594 157.96875 C 201.386719 152.339844 197.972656 148.242188 193.40625 145.488281 L 195.945312 137.621094 C 196.289062 136.542969 195.730469 135.394531 194.695312 135.066406 L 185.476562 132.09375 C 184.433594 131.757812 183.304688 132.363281 182.960938 133.441406 L 180.308594 141.652344 C 170.890625 141.28125 163.519531 146.664062 160.40625 156.3125 C 159.1875 160.078125 159.296875 163.441406 160.191406 166.480469 C 163.449219 165.976562 166.761719 165.15625 170.929688 164.300781 C 173.113281 163.847656 171.917969 169.679688 166.667969 170.761719 C 170.101562 172.375 176.808594 174.285156 182.257812 175.203125 C 183.597656 175.425781 184.265625 177.054688 183.421875 178.125 C 182.722656 179.023438 181.796875 179.710938 180.808594 180.125 C 180.777344 179.765625 180.5 179.460938 180.125 179.421875 C 171.671875 178.640625 163.617188 175.585938 163.535156 175.554688 C 163.144531 175.402344 162.699219 175.601562 162.542969 176 C 162.390625 176.394531 162.589844 176.832031 162.988281 176.984375 C 163.074219 177.015625 171.320312 180.148438 179.988281 180.945312 C 180.011719 180.945312 180.035156 180.945312 180.054688 180.945312 C 180.101562 180.945312 180.140625 180.929688 180.1875 180.921875 C 179.703125 182.851562 178.609375 184.183594 176.777344 184.71875 C 176.699219 184.390625 176.425781 184.144531 176.070312 184.128906 C 170.355469 183.929688 164.914062 182.875 160.324219 181.082031 C 159.929688 180.929688 159.488281 181.121094 159.324219 181.519531 C 159.171875 181.910156 159.363281 182.351562 159.761719 182.515625 C 164.414062 184.335938 169.917969 185.417969 175.679688 185.652344 C 175.488281 185.976562 175.25 186.28125 175 186.578125 C 175.710938 187.804688 176.03125 188.9375 175.710938 189.925781 C 175.027344 192.03125 173.78125 193.769531 169.234375 192.316406 C 168.644531 192.125 168.085938 191.917969 167.542969 191.679688 C 167.351562 191.726562 167.152344 191.769531 166.960938 191.800781 C 162.964844 192.519531 156.835938 191.402344 149.085938 189.046875 Z M 106.9375 68.476562 L 108.070312 67.726562 C 108.421875 67.488281 108.515625 67.011719 108.285156 66.660156 C 108.046875 66.308594 107.574219 66.214844 107.21875 66.445312 L 103.71875 68.78125 C 103.363281 69.019531 103.273438 69.492188 103.503906 69.847656 C 103.648438 70.066406 103.894531 70.191406 104.140625 70.191406 C 104.285156 70.191406 104.429688 70.152344 104.5625 70.058594 L 105.65625 69.332031 L 107.003906 71.523438 C 107.152344 71.761719 107.402344 71.890625 107.65625 71.890625 C 107.792969 71.890625 107.933594 71.851562 108.054688 71.777344 C 108.414062 71.554688 108.53125 71.085938 108.308594 70.71875 Z M 118.738281 72.320312 C 118.847656 72.351562 118.953125 72.363281 119.054688 72.363281 C 119.757812 72.363281 120.433594 71.675781 120.769531 70.566406 C 120.914062 70.082031 120.960938 69.585938 120.898438 69.171875 C 120.777344 68.308594 120.25 68.054688 120.019531 67.992188 C 119.207031 67.753906 118.371094 68.46875 117.988281 69.746094 C 117.613281 71.023438 117.917969 72.082031 118.738281 72.320312 Z M 129.691406 75.050781 C 129.796875 75.082031 129.90625 75.097656 130.003906 75.097656 C 130.710938 75.097656 131.382812 74.410156 131.722656 73.300781 C 132.097656 72.027344 131.789062 70.972656 130.976562 70.726562 C 130.15625 70.480469 129.324219 71.203125 128.945312 72.480469 C 128.5625 73.75 128.871094 74.816406 129.691406 75.050781 Z M 124.257812 76.492188 C 124.410156 76.492188 124.5625 76.445312 124.691406 76.355469 L 125.804688 75.574219 C 126.976562 74.753906 127.460938 73.152344 126.945312 71.769531 L 126.140625 69.609375 C 125.996094 69.210938 125.550781 69.011719 125.152344 69.15625 C 124.753906 69.300781 124.554688 69.746094 124.699219 70.144531 L 125.503906 72.304688 C 125.78125 73.046875 125.535156 73.894531 124.921875 74.324219 L 123.8125 75.105469 C 123.46875 75.351562 123.382812 75.824219 123.621094 76.171875 C 123.773438 76.386719 124.011719 76.492188 124.257812 76.492188 Z M 171.957031 188.921875 C 171.957031 188.863281 171.925781 188.816406 171.910156 188.761719 C 171.808594 188.425781 171.488281 188.1875 171.152344 188.195312 C 165.558594 188.464844 160.652344 187.75 156.558594 186.097656 C 156.167969 185.9375 155.722656 186.128906 155.5625 186.519531 C 155.402344 186.910156 155.59375 187.351562 155.984375 187.515625 C 159.703125 189.023438 164.039062 189.78125 168.90625 189.78125 C 169.519531 189.78125 170.148438 189.757812 170.777344 189.734375 C 170.929688 189.726562 171.074219 189.734375 171.226562 189.726562 C 171.648438 189.703125 171.980469 189.34375 171.957031 188.921875 Z M 119.367188 65.628906 C 120.292969 65.488281 121.296875 65.71875 121.996094 66.230469 C 122.132812 66.332031 122.292969 66.386719 122.457031 66.386719 C 122.691406 66.386719 122.921875 66.277344 123.070312 66.078125 C 123.320312 65.742188 123.253906 65.257812 122.90625 65.007812 C 121.878906 64.25 120.46875 63.910156 119.136719 64.109375 C 118.714844 64.171875 118.433594 64.5625 118.492188 64.984375 C 118.554688 65.40625 118.945312 65.6875 119.367188 65.628906 Z M 130.113281 68.328125 C 131.039062 68.191406 132.042969 68.421875 132.734375 68.933594 C 132.871094 69.035156 133.03125 69.089844 133.191406 69.089844 C 133.429688 69.089844 133.660156 68.980469 133.804688 68.78125 C 134.058594 68.445312 133.988281 67.960938 133.644531 67.710938 C 132.617188 66.953125 131.214844 66.613281 129.875 66.8125 C 129.453125 66.875 129.167969 67.265625 129.230469 67.6875 C 129.300781 68.109375 129.683594 68.390625 130.113281 68.328125 Z M 125.199219 80.152344 C 125.183594 80.152344 123.414062 80.421875 122.21875 79.53125 C 121.605469 79.074219 121.246094 78.390625 121.113281 77.441406 C 121.0625 77.019531 120.683594 76.722656 120.257812 76.78125 C 119.835938 76.835938 119.542969 77.21875 119.597656 77.640625 C 119.773438 79.003906 120.355469 80.058594 121.3125 80.765625 C 122.402344 81.570312 123.71875 81.722656 124.570312 81.722656 C 125.070312 81.722656 125.40625 81.667969 125.445312 81.660156 C 125.859375 81.589844 126.140625 81.199219 126.074219 80.78125 C 126.011719 80.375 125.621094 80.089844 125.199219 80.152344 Z M 78.902344 97.410156 C 84.972656 95.671875 91.832031 97.378906 96.375 101.765625 C 96.519531 101.914062 96.710938 101.980469 96.90625 101.980469 C 97.105469 101.980469 97.304688 101.90625 97.457031 101.742188 C 97.746094 101.4375 97.738281 100.957031 97.433594 100.664062 C 92.503906 95.910156 85.0625 94.054688 78.472656 95.941406 C 78.066406 96.054688 77.828125 96.484375 77.945312 96.890625 C 78.066406 97.289062 78.496094 97.523438 78.902344 97.410156 Z M 119.265625 98.429688 C 119.253906 98.453125 119.246094 98.480469 119.230469 98.503906 C 119.214844 98.527344 119.191406 98.550781 119.167969 98.574219 C 119.144531 98.597656 119.121094 98.621094 119.097656 98.644531 C 119.046875 98.6875 118.992188 98.726562 118.929688 98.757812 C 118.914062 98.765625 118.898438 98.78125 118.882812 98.789062 C 118.867188 98.796875 118.855469 98.796875 118.847656 98.804688 C 118.839844 98.804688 118.839844 98.804688 118.832031 98.8125 C 117.113281 99.5 115.359375 99.835938 113.597656 99.835938 C 108.101562 99.835938 102.550781 96.574219 98.023438 90.496094 C 98.007812 90.472656 98 90.441406 97.984375 90.417969 C 97.953125 90.375 97.929688 90.328125 97.917969 90.273438 C 97.902344 90.226562 97.894531 90.183594 97.886719 90.136719 C 97.878906 90.089844 97.878906 90.042969 97.878906 89.992188 C 97.878906 89.9375 97.894531 89.890625 97.910156 89.835938 C 97.917969 89.808594 97.917969 89.785156 97.921875 89.753906 L 97.945312 89.691406 L 103.535156 75.71875 C 102.347656 75.136719 101.3125 74.257812 100.605469 73.136719 C 99.121094 70.773438 99.179688 67.519531 100.765625 65.214844 C 101.140625 64.671875 101.59375 64.195312 102.109375 63.78125 C 102.539062 57.765625 103.320312 47.972656 111.808594 47.734375 C 117.65625 42.128906 123.820312 45.429688 129.261719 48.339844 C 134.050781 50.902344 138.574219 53.324219 142.871094 50.503906 C 143.070312 50.375 143.316406 50.34375 143.546875 50.421875 C 143.769531 50.496094 143.945312 50.679688 144.019531 50.902344 C 144.988281 53.859375 144.550781 57.058594 142.832031 59.699219 C 141.660156 61.5 140.019531 62.878906 138.105469 63.726562 L 132.535156 83.320312 C 131.136719 87.921875 126.871094 90.910156 122.285156 90.910156 C 122.050781 90.910156 121.8125 90.902344 121.566406 90.886719 L 119.335938 98.3125 C 119.328125 98.328125 119.320312 98.34375 119.3125 98.359375 C 119.304688 98.375 119.289062 98.398438 119.265625 98.429688 Z M 104.972656 76.253906 L 99.519531 89.914062 C 101.878906 92.976562 109.027344 100.839844 117.980469 97.496094 L 120.035156 90.65625 C 119.796875 90.601562 119.558594 90.542969 119.3125 90.472656 L 109.296875 87.554688 C 108.890625 87.441406 108.660156 87.011719 108.777344 86.605469 C 108.890625 86.199219 109.320312 85.972656 109.726562 86.085938 L 119.742188 89.003906 C 124.53125 90.402344 129.613281 87.65625 131.0625 82.878906 L 136.34375 64.324219 C 135.796875 64.464844 135.238281 64.578125 134.671875 64.640625 C 127.742188 65.335938 119.84375 62.425781 117.128906 61.316406 C 116.625 64.640625 115.042969 67.726562 112.714844 69.890625 C 112.570312 70.03125 112.386719 70.097656 112.195312 70.097656 C 112.0625 70.097656 111.933594 70.066406 111.816406 70 C 111.527344 69.839844 111.375 69.5 111.441406 69.171875 C 112.003906 66.515625 110.601562 65.121094 109.71875 64.523438 C 108.796875 63.90625 107.679688 63.613281 106.554688 63.636719 C 106.554688 63.636719 106.546875 63.636719 106.546875 63.636719 C 106.363281 63.644531 106.171875 63.667969 105.984375 63.691406 C 104.421875 63.917969 102.945312 64.777344 102.046875 66.078125 C 100.804688 67.894531 100.75 70.457031 101.925781 72.320312 C 103.097656 74.179688 105.425781 75.242188 107.609375 74.90625 C 108.03125 74.847656 108.421875 75.128906 108.484375 75.542969 C 108.546875 75.964844 108.261719 76.355469 107.847656 76.414062 C 107.503906 76.46875 107.160156 76.492188 106.8125 76.492188 C 106.183594 76.492188 105.570312 76.40625 104.972656 76.253906 Z M 108.5625 136.230469 L 104.492188 116.476562 C 104.40625 116.0625 104 115.792969 103.585938 115.878906 C 103.171875 115.960938 102.90625 116.367188 102.988281 116.78125 L 106.914062 135.855469 L 74.671875 145.898438 L 66.117188 125.96875 C 65.949219 125.578125 65.5 125.402344 65.113281 125.570312 C 64.722656 125.738281 64.546875 126.191406 64.714844 126.574219 L 73.558594 147.140625 C 73.683594 147.429688 73.964844 147.605469 74.265625 147.605469 C 74.34375 147.605469 74.417969 147.601562 74.496094 147.570312 L 76.28125 147.011719 L 106.597656 137.570312 L 108.0625 137.117188 C 108.414062 137.003906 108.644531 136.621094 108.5625 136.230469 Z M 245.988281 235.507812 C 247.519531 234.160156 250.496094 235.109375 252.769531 237.679688 C 255.046875 240.246094 255.628906 243.316406 254.097656 244.671875 C 253.628906 245.085938 253.015625 245.285156 252.339844 245.285156 C 250.808594 245.285156 248.894531 244.28125 247.3125 242.496094 C 245.046875 239.925781 244.464844 236.855469 245.988281 235.507812 Z M 248.464844 241.476562 C 250.203125 243.445312 252.339844 244.171875 253.085938 243.515625 C 253.828125 242.855469 253.359375 240.652344 251.621094 238.683594 C 250.296875 237.191406 248.746094 236.410156 247.75 236.410156 C 247.4375 236.410156 247.175781 236.484375 247 236.648438 C 246.265625 237.3125 246.722656 239.519531 248.464844 241.476562 Z M 248.464844 241.476562 " fill-opacity="1" fill-rule="nonzero"/></g></svg>